<?xml version="1.0" standalone="no"?>
<!DOCTYPE svg PUBLIC "-//W3C//DTD SVG 1.1//EN" "http://www.w3.org/Graphics/SVG/1.1/DTD/svg11.dtd" >
<svg xmlns="http://www.w3.org/2000/svg">
<metadata>Generated by IcoMoon</metadata>
<defs>
<font id="ed-icon" horiz-adv-x="1024">
<font-face units-per-em="1024" ascent="960" descent="-64" />
<missing-glyph horiz-adv-x="1024" />
<glyph unicode="&#x20;" horiz-adv-x="512" d="" />
<glyph unicode="&#xe900;" glyph-name="toboggan" d="M994 835.918c-16.568 0-30-13.432-30-30v-7.984h-161.016v7.984c0 16.568-13.432 30-30 30s-30-13.432-30-30v-118.65h-167.614c-47.704 0-90.952-26.32-112.868-68.692l-142.23-274.972c-35.48-68.592-105.496-111.204-182.72-111.204h-107.552c-16.568 0-30-13.432-30-30v-112.318c0-16.568 13.432-30 30-30h114.204c67.336 0 133.334 18.504 190.854 53.512 57.522 35.008 104.28 85.126 135.214 144.934l132.634 256.422h140.078v-424.868c0-16.568 13.432-30 30-30s30 13.432 30 30v72.192h161.016v-72.192c0-16.568 13.432-30 30-30s30 13.432 30 30v715.836c0 16.568-13.432 30-30 30zM964 222.274h-161.016v57.226h161.016v-57.226zM964 339.5h-161.016v57.226h161.016v-57.226zM964 456.728h-161.016v58.222h161.016v-58.222zM964 687.268h-161.016v50.666h161.016v-50.666z" />
<glyph unicode="&#xe901;" glyph-name="baby-on-stroller-side-view-silhouette" d="M640.157 809.473c0-83.134-65.914-150.527-147.223-150.527s-147.223 67.393-147.223 150.527c0 83.134 65.914 150.527 147.223 150.527s147.223-67.393 147.223-150.527zM177.932 491.431l-142.638-120.32c-27.886-23.516-31.426-65.194-7.899-93.090 13.071-15.495 31.73-23.463 50.528-23.463 15.035 0 30.162 5.108 42.562 15.564l225.223 189.844c-47.382 56.116-102.827 81.494-167.777 31.465zM137.105 243.471l0.217-0.255h-0.217v-59.713c-49.593-17.429-85.211-64.551-85.211-120.1 0-70.364 57.040-127.406 127.406-127.406s127.406 57.040 127.406 127.406c0 58.56-39.562 107.768-93.375 122.666v33.030l76.236 62.731c75.707-31.925 117.797-75.884 262.539-64.616 27.454 2.14 51.367 11.219 72.12 25.453l85.91-97.301c-18.649-22.16-29.927-50.726-29.927-81.954 0-70.367 57.040-127.406 127.406-127.406s127.406 57.036 127.406 127.406c0 70.364-57.038 127.406-127.406 127.406-9.38 0-18.487-1.088-27.292-3.002l-101.234 114.664c59.655 96.904 69.392 254.227 49.453 355.217-0.557 2.803 2.303 6.756 4.313 8.786 28.52 28.775 53.908 60.777 82.588 89.409 17.818 17.78 36.986 33.372 59.221 44.97 24.884 12.976 44.761 4.682 64.326-10.56 2.256-1.755 4.161-3.407 4.321-3.624 0.095-0.132 0.189-0.255 0.292-0.387 30.075-36.41 8.551-73.111-21.094-100.885-26.234-24.566 12.796-64.241 38.902-39.789 47.591 44.591 66.288 103.765 36.202 158.379-1.378 2.501-10.061 17.686-26.444 31.655-21.544 16.74-44.469 29.246-73.243 28.68-29.414-0.576-57.916-16.797-81.133-33.814-52.121-38.184-88.655-92.808-135.54-136.683-0.519-0.482-1.001-0.981-1.463-1.472-0.774-0.841-3.152-3.040-5.361-4.842 0 0-268.022-221.355-423.456-350.373l-113.865-93.677z" />
<glyph unicode="&#xe902;" glyph-name="baby-stroller" d="M588.799 960v-409.6h409.6c0 226.305-183.295 409.6-409.6 409.6zM252.929 499.2l-48.641 102.401h-178.687v-102.401h113.921c0 0 96.768-208.385 108.545-226.049-56.323-30.463-94.466-89.599-94.466-157.951 0-99.072 80.129-179.201 179.201-179.201 90.367 0 164.609 66.816 177.151 153.6h106.495c12.545-86.784 86.784-153.6 177.151-153.6 99.072 0 179.201 80.129 179.201 179.201 0 53.249-23.297 100.865-60.161 133.632 53.506 69.377 85.762 155.904 85.762 250.368h-745.471zM332.801 38.401c-42.497 0-76.8 34.303-76.8 76.8s34.303 76.8 76.8 76.8 76.8-34.303 76.8-76.8-34.306-76.8-76.8-76.8zM793.6 38.401c-42.497 0-76.8 34.303-76.8 76.8s34.303 76.8 76.8 76.8 76.8-34.303 76.8-76.8-34.306-76.8-76.8-76.8z" />
<glyph unicode="&#xe903;" glyph-name="duck" d="M995.072 640.278l0.47 0.47c18.090 16.212 28.458 39.21 28.458 63.23 0 47.062-38.272 85.334-85.334 85.334h-59.648c-4.65 4.736-13.014 16.982-19.926 27.050-34.346 50.176-98.26 143.616-219.092 143.616-167.040 0-256-136.278-256-234.666 0-67.67 45.568-143.018 71.978-180.95-20.352-5.29-52.138-11.050-93.312-11.050-79.914 0-138.198 8.278-217.302 119.082-3.286 4.566-8.32 7.766-13.952 8.662s-11.35-0.47-15.958-3.798c-69.332-50.388-115.454-112.512-115.454-251.904 0-141.142 54.058-469.334 554.666-469.334 426.41 0 448 284.33 448 341.334 0 104.49-96.554 225.792-137.514 272.598 36.010 22.186 105.258 66.134 129.92 90.326zM682.666 789.312c23.51 0 42.666-19.158 42.666-42.666 0-23.51-19.158-42.666-42.666-42.666-23.51 0-42.666 19.158-42.666 42.666s19.158 42.666 42.666 42.666zM576 149.312c-132.438 0-236.586 71.296-309.59 211.968-1.578 2.986-2.816 5.462-3.798 7.296-2.176 2.090-3.926 4.608-5.078 7.466-2.986 6.23-2.262 13.482 1.706 19.882 2.73 4.438 7.126 7.254 12.032 8.534 4.778 1.494 10.112 1.194 14.976-0.938 10.666-3.414 65.408-19.542 140.458-19.542 49.366 0 88.662 6.87 123.35 12.97 25.686 4.48 47.872 8.362 68.65 8.362 58.794 0 106.666-47.872 106.666-106.666-0.038-82.346-67.026-149.332-149.372-149.332z" />
<glyph unicode="&#xe904;" glyph-name="feeding-bottle" d="M725.284 596.974c0 0.17 0.086 0.298 0.086 0.47v21.338c0 42.247-30.895 77.155-71.266 83.94-15.875 34.524-40.071 54.281-58.634 68.449-7.723 5.931-19.459 14.85-19.459 18.307 0 13.058 3.159 19.629 7.937 29.573 5.419 11.308 12.162 25.39 13.272 48.904 1.962 42.631-23.982 79.373-63.072 89.359-53.983 13.912-107.496-28.037-107.496-82.488 0-26.798 7.339-42.417 13.228-54.921 4.695-9.986 8.107-17.155 8.107-30.427 0-3.499-11.692-12.418-19.459-18.307-18.605-14.168-42.759-33.926-58.634-68.449-40.369-6.785-71.266-41.693-71.266-83.94v-21.338c0-0.17 0.086-0.298 0.086-0.47-25.818-19.501-42.759-50.098-42.759-84.878v-21.338h106.684c11.778 0 21.338-9.56 21.338-21.338s-9.56-21.338-21.338-21.338h-106.684v-85.348h149.359c11.778 0 21.338-9.56 21.338-21.338s-9.56-21.338-21.338-21.338h-149.359v-85.348h106.684c11.778 0 21.338-9.56 21.338-21.338s-9.56-21.338-21.338-21.338h-106.684v-85.348h149.359c11.778 0 21.338-9.56 21.338-21.338s-9.56-21.338-21.338-21.338h-149.359v-21.338c0-58.804 47.88-106.684 106.684-106.684h298.716c58.804 0 106.684 47.88 106.684 106.684v469.42c0.002 34.78-16.939 65.377-42.755 84.878zM341.305 618.779c0 23.514 19.161 42.673 42.673 42.673h256.043c23.514 0 42.673-19.161 42.673-42.673h-341.389z" />
<glyph unicode="&#xe905;" glyph-name="acoustic-guitar" d="M995.246 931.248c-38.336 38.336-100.494 38.336-138.828 0l-54.13-54.13c-11.878-11.878-11.878-31.138 0-43.018l2.352-2.352-158.39-158.39c-91.496 61.078-200.236 64.844-262.657 2.42-16.496-16.496-28.368-36.23-35.78-58.024-14.214-41.792-52.4-70.804-96.472-73.306-65.224-3.702-127.17-28.904-174.558-76.29-111.636-111.636-100.198-304.077 25.552-429.825 125.748-125.748 318.187-137.188 429.825-25.552 47.386 47.386 72.592 109.332 76.29 174.558 2.5 44.070 31.516 82.26 73.306 96.472 21.794 7.412 41.526 19.284 58.024 35.78 62.42 62.422 58.658 171.16-2.42 262.657l158.39 158.39 2.352-2.352c11.878-11.878 31.138-11.878 43.018 0l54.13 54.13c38.334 38.338 38.334 100.496-0.004 138.832zM355.073 79.934c-7.2-7.198-16.636-10.798-26.074-10.798s-18.874 3.6-26.074 10.798l-158.992 158.992c-14.4 14.402-14.4 37.748 0 52.15 14.402 14.4 37.748 14.4 52.15 0l158.992-158.992c14.396-14.402 14.396-37.748-0.002-52.15zM582.697 366.527c-42.022-42.022-110.15-42.022-152.172 0s-42.022 110.15 0 152.172 110.15 42.022 152.172 0c42.022-42.022 42.018-110.152 0-152.172z" />
<glyph unicode="&#xe906;" glyph-name="alarm-bell" d="M271.359 859.734l-69.76 69.931c-116.948-89.004-194.302-227.414-201.599-383.83h97.835c7.297 129.493 73.857 243.029 173.524 313.898zM926.165 545.836h97.835c-7.297 156.416-84.651 294.826-201.983 383.83l-69.93-69.931c100.221-70.869 166.781-184.405 174.078-313.898zM829.865 521.302c0 150.143-104.108 275.84-244.565 309.035v33.322c0 40.533-32.682 73.344-73.301 73.344s-73.301-32.811-73.301-73.344v-33.322c-140.458-33.195-244.565-158.933-244.565-309.035v-268.927l-97.792-97.706v-48.896h831.316v48.896l-97.792 97.706c0 0 0 268.927 0 268.927zM511.999-41.001c6.87 0 13.183 0.427 19.626 1.964 31.659 6.314 58.154 28.33 70.314 57.77 4.906 11.606 7.893 24.362 7.893 38.101h-195.667c0-53.804 44.033-97.835 97.835-97.835z" />
<glyph unicode="&#xe907;" glyph-name="bass-guitar" d="M220.694 928.978l-55.752 27.862c-9.344 4.628-20.36 4.16-29.178-1.32-8.848-5.478-14.238-15.118-14.238-25.518v-157.526c-9.43 3.362-19.432 5.526-30 5.526-49.628 0-90-40.372-90-90s40.372-90 90-90c49.628 0 90 40.372 90 90v193.486l12.334-6.182c29.414-14.708 47.666-46.268 47.666-79.138 0-23.056-8.964-44.708-25.254-60.996-11.72-11.72-11.72-30.704-0.002-42.422s30.704-11.718 42.422 0c27.626 27.626 42.832 64.336 42.832 103.418 0 55.752-30.966 107.878-80.83 132.81zM880.696 264.977l-55.752 27.862c-9.346 4.628-20.362 4.16-29.18-1.318-8.848-5.478-14.238-15.118-14.238-25.518v-155.526c-9.43 3.362-19.432 5.526-30 5.526-49.628 0-90-40.372-90-90s40.372-90 90-90c49.628 0 90 40.372 90 90v191.484l12.334-6.182c29.414-14.708 47.666-44.268 47.666-77.138 0-23.056-8.964-44.708-25.254-60.996-11.718-11.72-11.718-30.704 0-42.422s30.704-11.718 42.422 0c27.626 27.626 42.832 64.336 42.832 103.418 0 55.752-30.966 105.878-80.83 130.81zM1005.946 889.924l-51.98 51.98c-28.96 28.956-77.776 21.036-96.094-15.594l-47.622-95.25 84.852-84.852 95.248 47.622c36.63 18.318 44.552 67.134 15.596 96.094zM725.721 343.015c-10.068 28.092-34.614 47.502-64.156 50.442-10.58 1.066-20.072 2.916-29.128 5.23l-78.746-78.742c-35.090-35.094-92.186-35.094-127.276 0l-42.43 42.426c-35.090 35.090-35.090 92.186 0 127.276l101.368 101.368c0.358 4.842 0.462 9.536 1.246 14.66 5.178 34.018-11.166 66.020-41.846 81.456-30.348 15.352-65.544 9.694-89.678-14.44l-29.418-29.418c-36.398-36.398-56.43-84.936-56.43-139.046 0-18.684-7.79-37.078-21.402-50.526-12.634-12.47-28.774-19.244-45.45-19.018-84.272 1.080-158.664-49.49-189.488-128.834-29.146-75.010-6.254-160.092 61.194-227.542l78.738-78.742c59.188-59.188 144.474-79.178 217.248-50.9 79.344 30.824 129.914 105.216 128.834 189.488-0.206 16.7 6.548 32.856 19.018 45.494 13.404 13.568 31.758 21.358 53.324 21.38 51.46-0.044 99.852 20.010 136.248 56.408 21.526 21.526 28.506 52.786 18.23 81.58zM320.345 129.024c-11.716-11.716-30.714-11.716-42.43 0l-84.852 84.852c-11.714 11.714-11.714 30.714 0.002 42.428 11.716 11.716 30.71 11.716 42.426 0l84.854-84.854c11.712-11.716 11.716-30.706 0-42.426zM405.199 213.875c-11.716-11.716-30.71-11.716-42.426 0l-84.854 84.854c-11.718 11.716-11.718 30.712-0.002 42.428 11.718 11.718 30.714 11.716 42.43 0l84.852-84.852c11.716-11.716 11.718-30.71 0-42.43zM767.823 788.634l-341.413-341.413c-11.716-11.716-11.716-30.71 0-42.426l42.426-42.426c11.716-11.716 30.71-11.716 42.426 0l341.413 341.413-84.852 84.852z" />
<glyph unicode="&#xe908;" glyph-name="book" d="M392.010 855.276h-361.654c-16.764 0-30.356-13.59-30.356-30.354v-605.164h393.678c32.896 0 63.314-10.756 87.966-28.91v634.712c-25.048 18.66-56.072 29.716-89.634 29.716zM375.874 354.316h-209.394c-16.764 0-30.356 13.592-30.356 30.356s13.592 30.356 30.356 30.356h209.394c16.764 0 30.356-13.592 30.356-30.356s-13.59-30.356-30.356-30.356zM375.874 478.554h-209.394c-16.764 0-30.356 13.592-30.356 30.356s13.592 30.356 30.356 30.356h209.394c16.764 0 30.356-13.592 30.356-30.356s-13.59-30.356-30.356-30.356zM375.874 602.792h-209.394c-16.764 0-30.356 13.592-30.356 30.356s13.592 30.356 30.356 30.356h209.394c16.764 0 30.356-13.592 30.356-30.356s-13.59-30.356-30.356-30.356zM993.644 855.276h-361.654c-33.562 0-64.588-11.058-89.634-29.716v-634.714c24.65 18.154 55.072 28.91 87.966 28.91h393.678v605.166c0 16.764-13.592 30.354-30.356 30.354zM857.52 354.316h-209.394c-16.764 0-30.356 13.592-30.356 30.356s13.592 30.356 30.356 30.356h209.396c16.764 0 30.356-13.592 30.356-30.356-0.002-16.764-13.592-30.356-30.358-30.356zM857.522 478.554h-209.396c-16.764 0-30.356 13.592-30.356 30.356s13.59 30.356 30.356 30.356h209.396c16.764 0 30.356-13.592 30.356-30.356s-13.592-30.356-30.356-30.356zM857.522 602.792h-209.396c-16.764 0-30.356 13.592-30.356 30.356s13.59 30.356 30.356 30.356h209.396c16.764 0 30.356-13.592 30.356-30.356-0.002-16.764-13.592-30.356-30.356-30.356zM630.322 159.046c-48.504 0-87.966-39.462-87.966-87.966v-30.356h451.288c16.764 0 30.356 13.592 30.356 30.356v87.966h-393.678zM393.678 159.046h-393.678v-87.966c0-16.764 13.592-30.356 30.356-30.356h451.288v30.356c0 48.504-39.462 87.966-87.966 87.966z" />
<glyph unicode="&#xe909;" glyph-name="calendar-fill" d="M511.999 396.8h256.001v-256.001h-256.001v256.001zM870.4 857.599h-51.199v102.401h-102.401v-102.401h-409.6v102.401h-102.401v-102.401h-51.199c-56.575 0-101.887-45.823-101.887-102.401l-0.514-716.798c0-56.575 45.823-102.401 102.401-102.401h716.8c56.575 0 102.401 45.823 102.401 102.401v716.8c-0.002 56.575-45.826 102.398-102.401 102.398zM870.4 38.401h-716.8v563.2h716.8v-563.2z" />
<glyph unicode="&#xe90a;" glyph-name="calendar" d="M910.222 846.222h-51.2v-113.778h-182.044v113.778h-329.956v-113.778h-182.044v113.778h-51.2c-62.578 0-113.778-51.2-113.778-113.778v-682.667c0-62.578 51.2-113.778 113.778-113.778h796.444c62.578 0 113.778 51.2 113.778 113.778v682.667c0 62.578-51.2 113.778-113.778 113.778zM910.222 49.778h-796.444v455.111h796.444v-455.111zM295.822 960h-79.644v-193.422h79.644v193.422zM807.822 960h-79.644v-193.422h79.644v193.422z" />
<glyph unicode="&#xe90b;" glyph-name="cubes-fill" d="M934 479h-134.114c-20.482-36.934-59.866-61.998-105.006-61.998h-152.88v-474.842c9.39-3.33 19.482-5.16 30-5.16h362c49.626 0 90 40.374 90 90v362c0 49.626-40.374 90-90 90zM914.304 150.532c0-48.228-39.238-87.466-87.468-87.466h-125.658c-16.568 0-30 13.432-30 30v229.87c0 16.568 13.432 30 30 30h125.658c48.23 0 87.468-39.238 87.468-87.466 0-21.978-8.146-42.088-21.58-57.468 13.434-15.382 21.58-35.492 21.58-57.47zM826.836 178h-95.658v-54.936h95.658c15.146 0 27.468 12.322 27.468 27.466 0 15.148-12.322 27.47-27.468 27.47zM826.836 292.936h-95.658v-54.936h95.658c15.146 0 27.468 12.322 27.468 27.468s-12.322 27.468-27.468 27.468zM246.998 255.854l-34.714-69.426h69.428zM332.88 417c-45.14 0-84.524 25.064-105.006 61.998h-137.874c-49.626 0-90-40.374-90-90v-362c0-49.626 40.374-90 90-90h362c10.518 0.002 20.61 1.832 30 5.162v474.84h-149.12zM375.352 66.234c-4.306-2.154-8.884-3.174-13.392-3.174-11.006-0.002-21.6 6.076-26.856 16.59l-23.504 47.002c-1.16-0.136-2.334-0.226-3.532-0.226h-122.14c-1.196 0-2.37 0.090-3.53 0.226l-23.502-47.004c-7.408-14.818-25.43-20.828-40.248-13.416-14.82 7.408-20.826 25.43-13.416 40.248l114.936 229.872c5.080 10.164 15.468 16.584 26.832 16.584s21.75-6.42 26.832-16.584l114.938-229.872c7.408-14.818 1.402-32.84-13.418-40.246zM694.88 959h-362c-33.084 0-60-26.916-60-60v-362c0-33.084 26.916-60 60-60h362c33.084 0 60 26.916 60 60v362c0 33.084-26.916 60-60 60zM517.016 633.068h81.668c16.568 0 30-13.432 30-30s-13.432-30-30-30h-81.668c-65.032 0-117.938 52.908-117.938 117.938v53.994c0 65.032 52.906 117.938 117.938 117.938h81.668c16.568 0 30-13.432 30-30s-13.432-30-30-30h-81.668c-31.948 0-57.938-25.99-57.938-57.938v-53.996c0-31.946 25.99-57.936 57.938-57.936z" />
<glyph unicode="&#xe90c;" glyph-name="cubes" d="M813.481 173.798h-3.364c-0.161 0-0.316 0.041-0.477 0.041-0.261-0.007-0.515-0.041-0.779-0.041h-69.806v-54.93h74.43c14.148 0 26.105 12.579 26.105 27.465-0.007 14.893-11.961 27.465-26.109 27.465zM811.081 249.595c0 14.745-11.954 27.197-26.105 27.197h-45.928v-48.064h62.153c4.7 3.433 9.881 11.065 9.881 20.867zM907.459 431.282h-175.089c64.889 0 116.541 53.697 116.541 118.583v265.868c0 64.893-51.651 116.788-116.541 116.788h-265.864c-64.889 0-118.827-51.892-118.827-116.788v-265.864c0-24.094 7.858-46.508 20.331-65.181l-4.714 5.002c-22.157 22.154-51.569 34.359-83.075 34.359-31.509 0-60.989-12.205-83.147-34.359l-162.668-162.706c-45.884-45.884-45.866-120.547 0.017-166.434l162.713-162.709c22.157-22.154 51.717-34.359 83.222-34.359s61.061 12.205 83.219 34.359l162.139 162.709c16.839 16.836 27.946 37.555 31.379 59.307v-136.896c0-64.886 53.938-118.583 118.827-118.583h231.533c64.889 0 116.541 53.697 116.541 118.583v231.533c0.003 64.896-51.648 116.788-116.537 116.788zM614.171 834.636c39.731 0 77.19-15.363 105.483-43.264 10.797-10.65 10.924-28.035 0.271-38.839-10.656-10.801-28.045-10.924-38.842-0.275-17.945 17.694-41.709 27.444-66.911 27.444-52.544 0-95.29-42.746-95.29-95.29s42.746-95.29 95.29-95.29c27.846 0 54.223 12.136 72.367 33.298 9.874 11.515 27.214 12.847 38.726 2.97 11.515-9.87 12.847-27.211 2.973-38.722-28.591-33.353-70.166-52.475-114.069-52.475-82.831 0-150.22 67.389-150.22 150.22 0.003 82.834 67.392 150.223 150.223 150.223zM455.791 234.256c-4.94-14.337-20.568-21.958-34.911-17.018l-40.494 13.949-86.968-86.968 13.595-41.331c4.741-14.409-3.097-29.933-17.509-34.675-2.849-0.937-5.744-1.38-8.586-1.38-11.542 0-22.284 7.33-26.088 18.889l-74.269 225.776c-3.258 9.911-0.625 20.815 6.804 28.141 7.426 7.33 18.367 9.808 28.231 6.41l223.17-76.878c14.347-4.944 21.969-20.575 17.025-34.915zM557.096 314.498v-46.831c-3.433 21.745-14.543 42.471-31.382 59.314l-124.677 124.512c18.673-12.473 41.376-20.211 65.47-20.211h209.42c-64.893 0-118.831-51.892-118.831-116.784zM813.481 63.939h-100.752c-15.168 0-28.608 13.197-28.608 28.364v212.853c0 15.168 13.441 26.565 28.608 26.565h72.25c44.682 0 81.035-36.391 81.035-81.677 0-12.143-2.712-23.668-7.766-34.39 21.842-14.773 36.267-40.37 36.267-68.989-0.003-45.424-36.357-82.728-81.035-82.728zM274.19 202.674l48.414 48.41-72.562 24.997z" />
<glyph unicode="&#xe90d;" glyph-name="dog" d="M0 538.092v-123.932c0-55.046 44.848-99.828 99.972-99.828 17.334 0 33.646 4.434 47.872 12.214l34.956 304.36c11.024 95.986 62.434 178.4 136.128 231.166-176.382-3.064-318.928-147.208-318.928-323.98zM705.072 862.070c73.694-52.766 125.104-135.18 136.128-231.166l34.956-304.36c14.226-7.782 30.538-12.214 47.872-12.214 55.126 0 99.972 44.782 99.972 99.828v123.932c0 176.774-142.546 320.916-318.928 323.98zM554.844 164.296l-42.844 41.934-42.844-41.934c-29.432-28.806-65.902-46.542-104.298-52.412 31.25-48.028 85.396-79.856 146.844-79.856h0.598c61.448 0 115.596 31.828 146.844 79.858-38.398 5.87-74.868 23.602-104.3 52.41zM817.726 308.896c-0.128 1.486-0.278 2.962-0.45 4.442l-35.686 310.722c-15.706 136.774-131.606 239.914-269.59 239.914s-253.882-103.14-269.59-239.914l-35.686-310.708c-0.17-1.484-0.322-2.984-0.454-4.478-5.662-64.872 34.026-107.708 73.056-126.16 40.050-18.932 99.928-22.452 147.86 24.46l45.496 44.53h-8.542c-33.138 0-60 26.862-60 60v29.21c0 33.138 26.862 60 60 60h95.714c33.136 0 60-26.862 60-60v-29.21c0-33.138-26.864-60-60-60h-8.542l45.496-44.53c47.93-46.91 107.806-43.394 147.862-24.46 39.034 18.452 78.72 61.288 73.056 126.182zM426.694 580.714c0-16.568-13.432-30-30-30s-30 13.432-30 30v56.23c0 16.568 13.432 30 30 30s30-13.432 30-30v-56.23zM657.306 580.714c0-16.568-13.432-30-30-30s-30 13.432-30 30v56.23c0 16.568 13.432 30 30 30s30-13.432 30-30v-56.23z" />
<glyph unicode="&#xe90e;" glyph-name="facebook-logo" d="M767.965 959.787l-132.79 0.213c-149.185 0-245.595-98.913-245.595-252.008v-116.192h-133.514c-11.537 0-20.88-9.353-20.88-20.891v-168.35c0-11.537 9.353-20.88 20.88-20.88h133.514v-424.8c0-11.537 9.343-20.88 20.88-20.88h174.198c11.537 0 20.88 9.353 20.88 20.88v424.8h156.109c11.537 0 20.88 9.343 20.88 20.88l0.064 168.35c0 5.54-2.205 10.845-6.115 14.765s-9.236 6.125-14.776 6.125h-156.163v98.498c0 47.342 11.282 71.375 72.952 71.375l89.453 0.032c11.527 0 20.869 9.353 20.869 20.88v156.322c0 11.516-9.332 20.859-20.848 20.88z" />
<glyph unicode="&#xe90f;" glyph-name="flag" d="M1018.924 282.983l-114.708 258.101 115.71 260.355c6.402 14.398 5.082 31.054-3.506 44.266-8.586 13.212-23.272 21.18-39.024 21.18h-418.884v46.54c0 25.704-20.838 46.542-46.542 46.542h-465.428c-25.704 0.002-46.542-20.838-46.542-46.542v-930.854c0-25.7 20.838-46.542 46.542-46.542s46.542 20.842 46.542 46.542v325.799h372.341v-46.542c0-25.7 20.838-46.542 46.542-46.542h465.426c0.016 0 0.044 0 0.062 0 25.7 0 46.542 20.842 46.542 46.542 0.002 7.618-1.828 14.81-5.074 21.154z" />
<glyph unicode="&#xe910;" glyph-name="flower" d="M752.54 719.060c0 34-18.48 63.646-47.952 79.088 2.822 8.736 4.234 17.942 4.234 27.382 0 24.146-9.412 46.854-26.472 63.882-24.058 24.058-58.354 31.736-90.118 21.734-15.056 29-45.35 48.854-80.232 48.854-34 0-63.706-18.882-79.118-48.384-31.118 9.852-66.646 2.442-91.234-22.176-17.058-17.058-26.472-39.766-26.472-63.912 0-9.060 1.354-17.942 4.058-26.56-28.588-15.176-48.176-45.292-48.176-79.91 0-34 18.882-63.646 48.352-79.088-2.824-8.736-4.234-17.942-4.234-27.382 0-24.146 9.412-46.854 26.472-63.882 24.058-24 58.354-31.736 90.118-21.734 15.056-29 45.352-48.852 80.234-48.852 34 0 63.706 18.882 79.118 48.382 31.118-9.852 66.588-2.442 91.234 22.176 17.058 17.058 26.472 39.766 26.472 63.912 0 9.060-1.354 17.942-4.058 26.56 28.586 15.176 47.774 45.294 47.774 79.91zM512 658.824c-33.236 0-60.236 27.030-60.236 60.236s27 60.236 60.236 60.236 60.236-27.030 60.236-60.236-27-60.236-60.236-60.236zM954.94 469.296c-6.264 6.264-14.912 9.382-23.676 8.736-8-0.646-196.942-16.382-274.47-93.91-64.062-64.088-70.408-126.566-19.908-190.292l-95.17-94.59v321.738c-9.804-2.008-19.474-3.096-29.716-3.096-10.232 0-20.306 1.070-30.118 3.062v-261.472l-94.768 94.588c50.504 63.72 44.154 126.204-19.908 190.292-77.528 77.528-266.47 93.264-274.47 93.91-8.764 0.912-17.442-2.47-23.676-8.736-6.234-6.234-9.412-14.882-8.736-23.676 0.646-8 16.382-196.942 93.91-274.47 35.824-35.824 71.176-53.736 106.5-53.736 27.808 0 55.634 11.552 83.682 33.754l0.124-0.124c0.036 0.030 0.062 0.052 0.098 0.080l137.242-137.412v-77.706h-210.822c-16.868 0-30.118-13.25-30.118-30.118 0-16.864 13.25-30.118 30.118-30.118h481.882c16.868 0 30.118 13.254 30.118 30.118 0 16.868-13.25 30.118-30.118 30.118h-211.224v17.47l137.758 137.534c28.088-22.26 55.944-33.826 83.792-33.826 35.324 0 70.676 17.912 106.5 53.736 77.528 77.528 93.264 266.47 93.91 274.47 0.678 8.792-2.5 17.44-8.736 23.676z" />
<glyph unicode="&#xe911;" glyph-name="football-field" d="M512 494.545c-25.665 0-46.545-20.88-46.545-46.545s20.88-46.545 46.545-46.545 46.545 20.88 46.545 46.545-20.88 46.545-46.545 46.545zM372.364 448c0 60.68 38.915 112.413 93.091 131.631v225.199l-418.912-0.016c-25.702 0-46.542-20.84-46.542-46.545v-139.602h232.727c25.706 0 46.545-20.84 46.545-46.545v-248.242c0-25.706-20.84-46.545-46.545-46.545h-232.727v-139.636c0-25.706 20.84-46.545 46.545-46.545h418.909v225.218c-54.176 19.217-93.091 70.951-93.091 131.631zM977.451 804.848l-418.906-0.016v-225.202c54.176-19.214 93.091-70.951 93.091-131.631s-38.915-112.413-93.091-131.631v-225.218h418.909c25.706 0 46.545 20.84 46.545 46.545v139.636h-232.727c-25.706 0-46.545 20.84-46.545 46.545v248.242c0 25.706 20.84 46.545 46.545 46.545h232.727v139.636c0 12.347-4.903 24.185-13.635 32.911-8.729 8.732-20.57 13.635-32.914 13.635zM93.091 370.424h93.091v155.152h-186.182v-155.152h46.545zM930.909 525.576h-93.091v-155.152h186.182v155.152h-46.545z" />
<glyph unicode="&#xe912;" glyph-name="forest" d="M692.586 501.416c19.16 29.034 29.414 63.018 29.414 98.584 0 77.198-49.628 145.254-120.938 170.040-10.136 106.434-100.020 189.96-209.062 189.96-108.164 0-197.46-82.178-208.536-189.786-71.6-24.638-123.464-92.84-123.464-170.214 0-35.566 10.254-69.55 29.414-98.584-55.254-38.906-89.414-102.802-89.414-171.416 0-115.782 96.218-210 212-210h150v137.578l-111.21 111.21c-11.718 11.718-11.718 30.704 0 42.422s30.704 11.718 42.422 0l68.788-68.788v155.156l-111.21 111.21c-11.718 11.718-11.718 30.704 0 42.422s30.704 11.718 42.422 0l68.788-68.788v167.578c0 16.582 13.418 30 30 30s30-13.418 30-30v-287.578l68.79 68.79c11.718 11.718 30.704 11.718 42.422 0s11.718-30.704 0-42.422l-111.212-111.212v-257.578h150c115.782 0 210 94.218 210 210 0 68.614-34.16 132.51-89.414 171.416zM934.586 501.416c19.16 29.034 29.414 63.018 29.414 98.584 0 77.198-49.628 145.254-120.938 170.040-10.136 106.434-100.020 189.96-209.062 189.96-20.61 0-40.654-3.812-60.044-9.616 40.068-35.976 70.008-83.386 82.896-138.626 77.754-41.544 127.148-123.018 127.148-211.758 0-29.062-5.040-57.188-15-83.848 47.93-50.098 75-116.806 75-186.152 0-85.254-40.492-160.48-102.388-210h72.388c115.782 0 210 94.218 210 210 0 68.614-34.16 132.51-89.414 171.416zM812-4h-150v60h-60v-60h-180v60h-60v-60h-150c-16.802 0-30-13.198-30-30s13.198-30 30-30h600c16.802 0 30 13.198 30 30s-13.198 30-30 30z" />
<glyph unicode="&#xe913;" glyph-name="google-plus" d="M999.619 514.992h-64.336v64.34c0 13.468-10.913 24.381-24.381 24.381h-86.851c-13.468 0-24.381-10.913-24.381-24.381v-64.34h-64.336c-13.468 0-24.381-10.913-24.381-24.381v-86.851c0-13.468 10.913-24.381 24.381-24.381h64.336v-64.34c0-13.465 10.913-24.381 24.381-24.381h86.851c13.468 0 24.381 10.916 24.381 24.381v64.34h64.336c13.468 0 24.381 10.913 24.381 24.381v86.851c0 13.468-10.913 24.381-24.381 24.381zM331.275 621.397c29.543 0 57.939-7.964 82.161-23.038l27.674-18.936c9.645-6.599 22.619-5.432 30.928 2.799l80.711 79.957c5.166 5.117 7.776 12.268 7.122 19.508-0.65 7.24-4.499 13.809-10.494 17.922l-46.909 32.17c-0.956 0.653-1.96 1.242-2.997 1.752l-45.443 22.437c-0.601 0.299-1.216 0.572-1.84 0.819-39.146 15.454-80.389 23.292-122.581 23.292-86.981 0-169.028-33.386-231.027-93.997-62.958-61.551-97.969-145.249-98.574-235.679-0.608-90.45 33.285-174.633 95.427-237.035 61.661-61.924 149.143-97.443 240.019-97.443 89.91 0 174.269 34.91 231.44 95.778 45.287 48.213 73.078 112.611 80.382 186.231 0.068 0.699 0.111 1.398 0.117 2.097l0.845 66.137c0.020 1.369-0.078 2.734-0.293 4.086l-3.543 22.603c-1.856 11.862-12.080 20.607-24.085 20.607h-281.753c-13.468 0-24.381-10.916-24.381-24.381v-97.465c0-13.465 10.913-24.381 24.381-24.381h143.64c-6.583-14.43-16.956-29.647-30.073-43.827-28.61-30.941-71.277-48.687-117.061-48.687-46.756 0-91.533 18.321-122.847 50.264-65.185 66.472-64.437 182.295 1.59 247.857 31.084 30.853 73.9 48.554 117.464 48.554z" />
<glyph unicode="&#xe914;" glyph-name="heart" d="M752 898c-121.318 0-199.19-84.756-240-161.074-40.81 76.318-118.682 161.074-240 161.074-153.926 0-272-125.976-272-293.028 0-180.792 147.634-304.892 368.036-492.714 39.052-33.282 80.566-68.672 124.218-106.846 5.654-4.952 12.686-7.412 19.746-7.412s14.092 2.46 19.746 7.412c43.652 38.174 85.166 73.564 124.218 106.846 220.402 187.822 368.036 311.924 368.036 492.714 0 167.052-118.074 293.028-272 293.028z" />
<glyph unicode="&#xe915;" glyph-name="instagram-symbol" d="M985.343 921.327c-25.779 25.786-56.671 38.673-92.661 38.673h-761.34c-36.002 0-66.885-12.892-92.671-38.673-25.781-25.774-38.668-56.662-38.668-92.657v-761.333c0-35.99 12.885-66.885 38.668-92.661 25.786-25.779 56.676-38.675 92.671-38.675h761.331c35.983 0 66.885 12.896 92.664 38.675 25.786 25.777 38.661 56.671 38.661 92.661v761.333c-0.002 36.002-12.875 66.873-38.654 92.657zM367.68 591.005c40.219 38.883 88.554 58.334 144.999 58.334 56.882 0 105.434-19.451 145.662-58.334 40.228-38.89 60.33-85.895 60.33-141.004 0-55.102-20.102-102.109-60.33-140.988-40.228-38.899-88.764-58.348-145.662-58.348-56.443 0-104.773 19.465-144.999 58.348-40.228 38.883-60.34 85.885-60.34 140.988 0 55.109 20.112 102.111 60.34 141.004zM908.016 94.659c0-11.547-4.012-21.209-12.004-28.992-8.016-7.776-17.557-11.666-28.679-11.666h-712.655c-11.554 0-21.228 3.89-28.999 11.666-7.783 7.766-11.671 17.445-11.671 28.992v432.015h93.997c-8.885-28.004-13.328-57.12-13.328-87.335 0-85.353 31.107-158.117 93.329-218.352 62.229-60.211 137.116-90.331 224.671-90.331 57.778 0 111.108 13.784 160.013 41.337 48.889 27.57 87.531 65.005 115.996 112.344 28.448 47.336 42.671 99.006 42.671 155 0 30.215-4.46 59.324-13.345 87.335h90.009v-432.015h-0.005zM908.016 690.008c0-12.889-4.444-23.78-13.347-32.667-8.885-8.894-19.768-13.335-32.665-13.335h-115.996c-12.882 0-23.782 4.444-32.667 13.335-8.887 8.887-13.328 19.778-13.328 32.667v109.99c0 12.446 4.441 23.222 13.328 32.336 8.887 9.109 19.787 13.669 32.667 13.669h115.996c12.896 0 23.782-4.558 32.665-13.669 8.901-9.114 13.347-19.89 13.347-32.336v-109.99z" />
<glyph unicode="&#xe916;" glyph-name="kid-teddy-bear" d="M544.48 613.535c0-19.537-15.838-35.375-35.375-35.375s-35.375 15.838-35.375 35.375c0 19.537 15.838 35.375 35.375 35.375s35.375-15.838 35.375-35.375zM782.179 149.747c-17.028 9.14-14.407 25.618-14.407 35.948v144.334c49.81 10.173 159.432 11.107 159.432 109.564 0 48.652-39.692 66.468-88.098 61.546-38.6-3.922-56.755-29.683-122.145-5.089-8.289 3.117-31.415 23.516-18.175 39.655 33.849 41.266 52.944 95.065 52.944 152.998 0 9.47-0.080 28.445 8.412 31.988 43.549 18.178 73 63.286 73 114.28 0 69.049-54.983 125.029-122.799 125.029-36.765 0-69.751-16.463-92.258-42.534-1.97-2.285-5.491-7.027-14.118-3.303-30.546 14.37-56.11 18.631-91.971 18.631-38.517 0-66.509-5.195-98.761-21.63-10.178-3.114-17.094 7.371-22.126 12.46-22.194 22.475-52.764 36.375-86.538 36.375-67.819 0-122.804-55.978-122.804-125.029 0-53.010 32.407-98.311 78.149-116.497 4.421-1.758 11.253-7.062 12.346-29.772 2.761-57.437 19.542-110.353 52.219-152.066 12.119-15.465 0.442-35.429-17.796-41.066-66.526-20.566-83.327 1.603-121.787 5.571-48.4 4.995-88.098-12.893-88.098-61.546 0-95.808 109.59-99.22 159.423-109.249v-144.649c0-10.614 1.485-25.48-20.646-39.153-61.806-25.471-150.518-27.438-150.518-113.934 0-52.632 43.652-105.447 95.297-95.297 64.699 12.71 98.66 34.188 196.831 78.616 21.142 9.634 36.060 4.802 45.343 3.501 27.848-3.911 57.996-5.425 89.463-5.425 35.159 0 68.665 1.887 99.151 6.898 7.695 1.264 25.689 1.99 42.21-4.725 95.805-44.595 126.549-66.035 190.291-78.866 51.597-10.385 95.297 42.666 95.297 95.297 0.006 86.489-95.068 91.338-156.763 117.136zM628.028 578.157c0-51.528-53.24-93.308-118.925-93.308-65.674 0-118.922 41.78-118.922 93.308 0 51.534 53.245 93.308 118.922 93.308 65.683 0 118.925-41.774 118.925-93.308zM337.973 732.047c0 23.447 19 42.453 42.451 42.453 23.444 0 42.456-19.006 42.456-42.453s-19.012-42.453-42.456-42.453c-23.45 0.003-42.451 19.009-42.451 42.453zM655.664 206.86c0-79.342-64.324-114.971-143.66-114.971-79.345 0-143.663 35.63-143.663 114.971v67.555c0 79.342 64.321 143.66 143.663 143.66 79.339 0 143.66-64.321 143.66-143.66v-67.555zM622.758 689.596c-23.447 0-42.453 19.006-42.453 42.453s19.006 42.453 42.453 42.453 42.453-19.006 42.453-42.453-19.006-42.453-42.453-42.453z" />
<glyph unicode="&#xe917;" glyph-name="lectern" d="M607.098 883.518c-36.952 0-67.014-30.064-67.014-67.014v-404.012c19.086 11.862 41.594 18.722 65.672 18.722h262.816v452.304h-261.474zM788.572 529.262h-168.492c-16.314 0-29.538 13.226-29.538 29.538s13.226 29.538 29.538 29.538h168.494c16.314 0 29.538-13.226 29.538-29.538s-13.226-29.538-29.54-29.538zM788.572 629.232h-168.492c-16.314 0-29.538 13.226-29.538 29.538s13.226 29.538 29.538 29.538h168.494c16.314 0 29.538-13.226 29.538-29.538s-13.226-29.538-29.54-29.538zM788.572 729.202h-168.492c-16.314 0-29.538 13.226-29.538 29.538s13.226 29.538 29.538 29.538h168.494c16.314 0 29.538-13.226 29.538-29.538s-13.226-29.538-29.54-29.538zM994.462 848.474h-66.814v-446.8c0-16.314-13.226-29.538-29.538-29.538h-292.354c-36.212 0-65.672-29.462-65.672-65.674v-68.924h454.378c16.314 0 29.538 13.226 29.538 29.538v551.86c0 16.314-13.226 29.538-29.538 29.538zM413.992 883.518h-261.474v-452.304h262.816c24.078 0 46.586-6.856 65.672-18.722v404.010c0 36.952-30.062 67.016-67.014 67.016zM401.008 529.262h-168.494c-16.314 0-29.538 13.226-29.538 29.538s13.226 29.538 29.538 29.538h168.494c16.314 0 29.538-13.226 29.538-29.538s-13.224-29.538-29.538-29.538zM401.008 629.232h-168.494c-16.314 0-29.538 13.226-29.538 29.538s13.226 29.538 29.538 29.538h168.494c16.314 0 29.538-13.226 29.538-29.538s-13.224-29.538-29.538-29.538zM401.008 729.202h-168.494c-16.314 0-29.538 13.226-29.538 29.538s13.226 29.538 29.538 29.538h168.494c16.314 0 29.538-13.226 29.538-29.538s-13.224-29.538-29.538-29.538zM415.334 372.136h-292.354c-16.314 0-29.538 13.226-29.538 29.538v446.8h-63.904c-16.312 0-29.538-13.224-29.538-29.538v-551.86c0-16.314 13.226-29.538 29.538-29.538h451.468v68.924c0 36.212-29.46 65.674-65.672 65.674zM371.47 178.462v-136.44c0-16.314 13.226-29.538 29.538-29.538h219.072c16.314 0 29.538 13.226 29.538 29.538v136.44h-278.148z" />
<glyph unicode="&#xe918;" glyph-name="linkedin-logo" d="M1024 337.332v-378.579h-219.476v353.224c0 88.733-31.745 149.29-111.188 149.29-60.645 0-96.735-40.811-112.612-80.288-5.79-14.113-7.28-33.757-7.28-53.512v-368.714h-219.55c0 0 2.957 598.246 0 660.229h219.529v-93.585c-0.445-0.7-1.024-1.455-1.443-2.133h1.443v2.133c29.167 44.922 81.255 109.095 197.845 109.095 144.447 0.002 252.733-94.363 252.733-297.16zM124.235 937.245c-75.108 0-124.235-49.265-124.235-114.050 0-63.373 47.705-114.133 121.321-114.133h1.467c76.562 0 124.177 50.75 124.177 114.133-1.443 64.785-47.615 114.050-122.73 114.050zM13.039-41.247h219.467v660.229h-219.467v-660.229z" />
<glyph unicode="&#xe919;" glyph-name="medal" d="M512 778c-115.782 0-210-94.218-210-210s94.218-210 210-210 210 94.218 210 210-94.218 210-210 210zM542 448c0-16.582-13.418-30-30-30s-30 13.418-30 30v167.578l-8.79-8.79c-11.718-11.718-30.704-11.718-42.422 0s-11.718 30.704 0 42.422l60 60c8.614 8.614 21.504 11.192 32.696 6.504 11.22-4.628 18.516-15.586 18.516-27.714v-240zM512 960c-215.040 0-390-176.96-390-392s174.96-390 390-390 390 174.96 390 390-174.96 392-390 392zM512 298c-148.886 0-270 121.114-270 270s121.114 270 270 270 270-121.114 270-270-121.114-270-270-270zM976.708 81.084l-102.848 220.538c-61.036-82.694-149.476-143.628-251.996-169.494l82.94-178.814c4.952-10.606 15.556-17.314 27.188-17.314 0.44 0 0.878 0 1.318 0.030 12.1 0.528 22.734 8.32 26.866 19.716l47.782 132.254 131.308-47.784c11.426-4.19 24.2-0.996 32.374 7.91 8.204 8.964 10.196 21.944 5.068 32.958zM150.14 301.622l-102.848-220.536c-5.126-11.016-3.134-23.994 5.068-32.958 8.232-8.936 21.064-12.158 32.374-7.91l131.308 47.782 47.784-132.254c4.13-11.396 14.766-19.19 26.866-19.716 0.44-0.030 0.878-0.030 1.318-0.030 11.63 0 22.236 6.708 27.188 17.314l82.94 178.814c-102.522 25.866-190.962 86.8-251.998 169.494z" />
<glyph unicode="&#xe91a;" glyph-name="music-single" d="M512 960v-600.461c-33.565 19.627-72.248 31.573-113.779 31.573-125.723 0-227.555-101.832-227.555-227.557s101.832-227.555 227.555-227.555 227.555 101.832 227.555 227.555v568.891h227.557v227.555h-341.333z" />
<glyph unicode="&#xe91b;" glyph-name="music-note" d="M418.594 747.060c-54.082 39.638-109.57 88.492-149.062 147.73l-34.572 51.856c-7.324 10.986-20.976 15.878-33.662 12.070-12.656-3.838-21.298-15.498-21.298-28.712v-470.688c-17.72 10.334-38.046 16.688-60 16.688-66.182 0-120-53.818-120-120s53.818-119.998 120-119.998 120 53.818 120 120v475.496c42.392-53.584 95.42-97.86 143.116-132.84 23.436-17.168 36.884-43.654 36.884-72.656 0-49.628-40.372-90-90-90-16.582 0-30-13.418-30-30s13.418-30 30-30c82.706 0 150 67.294 150 150 0 47.608-22.94 92.842-61.406 121.054zM985.768 714.862l-424-120c-12.89-3.692-21.768-15.468-21.768-28.858v-406.688c-17.72 10.334-38.046 16.688-60 16.688-66.182 0-120-53.818-120-120s53.818-120 120-120 120 53.818 120 120c0 6.84 0 367.36 0 367.36l364 102.858v-246.906c-17.72 10.334-38.046 16.688-60 16.688-66.182 0-120-53.818-120-120s53.818-120 120-120 120 53.818 120 120c0 6.84 0 510 0 510 0 19.842-18.98 34.296-38.232 28.858z" />
<glyph unicode="&#xe91c;" glyph-name="music-player" d="M1003.938 948.724c-10.092 8.758-23.498 12.698-36.732 10.814l-645.546-92.22c-22.718-3.246-39.59-22.702-39.59-45.65v-540.618c-27.312 15.912-59.018 25.074-92.842 25.074-102.042 0-185.062-83.020-185.062-185.062s83.018-185.062 185.060-185.062 185.062 83.020 185.062 185.062v476.172l553.326 79.046v-303.008c-27.312 15.912-59.018 25.074-92.842 25.074-102.042 0-185.062-83.020-185.062-185.062s83.020-185.062 185.062-185.062 185.062 83.020 185.062 185.062v700.606c0.002 13.368-5.798 26.076-15.896 34.834z" />
<glyph unicode="&#xe91d;" glyph-name="open-book" d="M994 682.8c-16.568 0-30-13.432-30-30v-439.65l-68.138-2.222c-136.904-4.586-283.426-19.64-383.434-89.322-0.048-0.034-0.098-0.068-0.148-0.104-101.914 70.406-260.266 85.56-384.172 89.428l-68.108 2.22v439.65c0 16.568-13.432 30-30 30s-30-13.432-30-30v-468.688c0-16.186 12.842-29.456 29.022-29.984l97.172-3.17c249.582-7.79 325.698-60.586 354.352-80.462 26.61-18.458 35.634-19.408 66.184 1.88 30.15 21.004 100.754 70.196 351.118 78.584l97.13 3.168c16.18 0.526 29.022 13.796 29.022 29.984v468.688c0 16.568-13.432 30-30 30zM892.606 839.456c-10.866-0.354-256.986-9.090-380.606-72.634-123.62 63.544-369.74 72.28-380.606 72.634-17.104 0.51-30.978-13.162-30.978-29.984v-528.58c0-16.186 12.842-29.454 29.018-29.984 2.622-0.086 263.354-9.348 366.926-72.618 9.604-5.866 21.678-5.864 31.278 0 103.572 63.27 364.304 72.532 366.926 72.618 16.176 0.532 29.018 13.798 29.018 29.984v528.58c0.002 16.758-13.79 30.484-30.976 29.984zM477.608 336.954c0-19.84-18.962-34.232-38.066-28.894-56.66 15.816-129.964 28.34-211.992 36.214-15.388 1.478-27.132 14.406-27.132 29.864v327.67c0 17.836 15.506 31.784 33.288 29.818 58.718-6.472 166.28-21.69 226.91-50.866 10.388-4.998 16.992-15.506 16.992-27.034v-316.772zM823.584 546.33v0c0-15.044-11.144-27.764-26.058-29.74-86.186-11.422-159.438-26.484-211.838-43.558-19.352-6.308-39.294 8.128-39.294 28.524v152.174c0 11.528 6.604 22.036 16.992 27.034 60.63 29.176 168.192 44.392 226.91 50.868 17.806 1.932 33.288-11.98 33.288-29.82v-155.482z" />
<glyph unicode="&#xe91e;" glyph-name="plant" d="M659.169 469.311c0.194 0.050 0.386 0.104 0.58 0.156-0.198-0.052-0.396-0.094-0.592-0.144l0.012-0.012zM908.754 633.373c54.244 54.248 72.228 135.888 45.814 207.986-3.036 8.286-9.564 14.814-17.848 17.85-72.098 26.414-153.738 8.428-207.984-45.818-3.030-3.030-5.93-6.158-8.732-9.354v125.884c0 16.568-13.432 30-30 30s-30-13.432-30-30v-239.802c-3.194 3.716-6.536 7.332-10.032 10.83-54.248 54.246-135.886 72.232-207.984 45.818-8.286-3.036-14.814-9.564-17.848-17.85-26.414-72.1-8.43-153.738 45.818-207.986 49.584-49.584 122.046-68.828 189.198-51.608l-119.106 119.106c-11.716 11.716-11.716 30.71 0 42.426s30.71 11.716 42.426 0l77.526-77.526v-83.792c-0.084-0.022-0.17-0.046-0.254-0.068 0.086 0.022 0.172 0.040 0.258 0.062v-44.624c-54.824-7.668-102.958-36.488-135.858-77.932l185.688 0.002c30.496 0 59.006-11.996 80.282-33.78 21.232-21.738 32.528-50.462 31.81-80.88-0.702-29.75-13.066-57.496-34.814-78.126-20.138-19.102-46.208-30.052-73.832-31.1 10.096-0.918 20.254-1.38 30.456-1.38h62.974l85.884 85.998c2.442 2.442 4.986 4.742 7.604 6.926 0.004 0.488 0.018 0.974 0.018 1.464 0 105.86-78.418 193.74-180.212 208.628v156.9c67.024-17.018 139.276 2.276 188.748 51.746zM720.003 582.217v84.852l76.226 76.226c11.716 11.716 30.71 11.716 42.426 0s11.716-30.71 0-42.426l-118.652-118.652zM1008.73 165.42c-20.354 20.358-53.352 20.22-73.708-0.136l-103.436-103.572h-87.848c-93.808 0-184.6 33.142-256.345 93.578l-32.91 27.72h254.418c28.402 0 52.374 22.33 53.046 50.724 0.694 29.368-22.902 53.246-52.106 53.246h-443.551c-41.768 0-82.998-9.43-120.614-27.586l-109-52.612c-30.774-14.856-44.744-51.040-31.934-82.72l45.23-111.872c12.996-32.144 48.974-48.382 81.676-36.862l134.55 47.394 65.144-28.514c87.59-38.338 182.168-58.128 277.781-58.128h236.394c10.372 0 20.284 4.274 27.404 11.814l135.814 143.816c20.354 20.356 20.354 53.356-0.004 73.71z" />
<glyph unicode="&#xe91f;" glyph-name="puzzle-single" d="M923.826 960h-378.434v-144.696h66.782c73.652 0 133.566-59.912 133.566-133.566s-59.912-133.566-133.566-133.566h-66.782v-66.782h100.174c18.434 0 33.392-14.946 33.392-33.392v-100.174c0-36.826 29.956-66.782 66.782-66.782s66.782 29.956 66.782 66.782v100.176c0 18.446 14.958 33.392 33.392 33.392h178.086v378.434c0 55.238-44.936 100.174-100.174 100.174zM612.174 748.522h-100.174c-18.434 0-33.392 14.946-33.392 33.392v178.086h-378.434c-55.238 0-100.174-44.936-100.174-100.174v-378.434h144.696v66.782c0 73.652 59.912 133.566 133.566 133.566s133.566-59.912 133.566-133.566v-66.782h66.782v100.174c0 18.446 14.958 33.392 33.392 33.392h100.174c36.826 0 66.782 29.956 66.782 66.782s-29.958 66.782-66.784 66.782zM411.826 281.044h66.782v133.566h-100.174c-18.434 0-33.392 14.946-33.392 33.392v100.174c0 36.826-29.956 66.782-66.782 66.782s-66.782-29.956-66.782-66.782v-100.176c0-18.446-14.958-33.392-33.392-33.392h-178.086v-378.434c0-55.238 44.936-100.174 100.174-100.174h378.434v211.478h-66.782c-36.826 0-66.782 29.956-66.782 66.782s29.956 66.784 66.782 66.784z" />
<glyph unicode="&#xe920;" glyph-name="puzzle-fill" d="M1006.1 137.864c-10.782 4.688-23.554 2.724-32.314-5.274-11.074-10.108-25.43-15.674-40.458-15.674-33.076 0-60 26.924-60 60s26.922 60 59.998 60c15 0 29.356-5.566 40.458-15.704 8.73-7.998 21.504-9.99 32.314-5.274 10.898 4.804 17.9 15.556 17.9 27.452v174.61h-173.438c-23.852 0-40.668 29.414-22.412 49.952 9.786 10.986 15.176 25.166 15.176 39.874 0 33.076-26.924 60-60 60s-60-26.924-60-60c0-14.708 5.39-28.886 15.176-39.874 16.594-18.666 3.438-49.952-22.412-49.952h-172.088v-124.716c9.522 2.402 19.366 3.632 29.326 3.632 66.182 0 120-53.818 120-120s-53.818-120-120-120c-9.96 0-19.804 1.23-29.326 3.632v-124.548h450c16.582 0 30 13.418 30 30v144.412c0 11.894-7.002 22.646-17.9 27.452zM994 960h-143.584c-11.836 0-22.558-6.944-27.392-17.754s-2.842-23.438 5.040-32.256c9.844-10.986 15.264-25.196 15.264-39.99 0-33.076-26.924-60-60-60s-60 26.924-60 60c0 14.794 5.42 29.004 15.264 39.99 7.88 8.818 9.874 21.446 5.040 32.256s-15.56 17.754-27.396 17.754h-142.236c-16.582 0-30-13.418-30-30v-123.72c-9.638 2.46-19.628 3.72-29.736 3.72-66.182 0-120-55.818-120-122s53.818-120 120-120c10.108 0 20.098 1.26 29.736 3.72v-93.72h123.566c-2.502 9.708-4.24 19.632-4.24 29.824 0 66.182 53.818 120 120 120s120-53.818 120-120c0-10.192-1.736-20.116-4.238-29.824h124.912v452c0 16.582-13.418 30-30 30zM573.326 236.916c-14.56 0-28.594-5.274-39.55-14.882-20.318-17.644-49.776-1.714-49.776 22.558v173.408h-174.53c-11.806 0-22.5-6.914-27.334-17.666-4.864-10.752-2.958-23.32 4.834-32.168 9.698-10.986 15.030-25.108 15.030-39.756 0-33.076-26.924-60-60-60s-60 26.924-60 60c0 14.648 5.332 28.77 15.030 39.756 7.792 8.848 9.698 21.416 4.834 32.168-4.834 10.752-15.528 17.666-27.334 17.666h-144.53c-16.582 0-30-13.418-30-30v-422c0-16.582 13.418-30 30-30h144.91c11.836 0 22.558 6.944 27.392 17.754s2.842 23.438-5.040 32.256c-9.842 10.986-15.262 27.196-15.262 41.99 0 33.076 26.924 60 60 60s60-26.924 60-60c0-14.794-5.42-31.004-15.264-41.99-7.88-8.818-9.874-21.446-5.040-32.256s15.558-17.754 27.394-17.754h174.91v173.24c0 22.968 28.814 40.998 49.804 22.53 10.898-9.58 24.96-14.854 39.522-14.854 33.076 0 60 26.924 60 60s-26.924 60-60 60z" />
<glyph unicode="&#xe921;" glyph-name="puzzle" d="M997.493 511.637l-120.421 120.421c-49.523 49.523-19.259 101.797 34.708 104.971 88.887 5.503 138.833 100.315 66.242 179.256-78.94 72.379-173.33 22.645-178.832-66.030-3.386-53.967-56.083-84.443-105.395-35.132l-117.881 117.881c-35.343 35.343-92.696 35.343-128.040 0l-119.363-119.363c-49.523-49.523-102.008-18.836-105.395 35.132-5.503 88.887-100.739 139.468-179.679 66.877-72.803-79.152-22.222-174.388 66.665-179.89 53.967-3.386 84.654-56.083 35.343-105.606l-118.939-118.728c-35.343-35.343-35.343-92.696 0-128.040l117.881-117.881c49.523-49.311 20.105-100.739-33.862-104.125-88.887-5.503-138.621-100.104-66.030-179.044 78.94-72.591 173.118-23.068 178.621 65.819 3.386 53.967 55.025 83.596 104.548 34.285l118.939-118.939c35.978-35.978 94.813-35.978 130.791-0.212l119.151 119.151c46.772 48.888 16.508 100.315-36.825 103.702-88.887 5.503-139.256 100.739-66.665 179.679 78.94 72.591 174.176 22.010 179.679-66.877 3.386-53.332 54.602-83.385 103.49-36.613l119.574 119.574c0.212 0.212 0.212 0.212 0.423 0.423l1.27 1.27c35.343 35.343 35.343 92.696 0 128.040z" />
<glyph unicode="&#xe922;" glyph-name="rocking-horse" d="M1019.166 109.542c-13.194 30.76-48.892 44.31-78.78 31.55-137.842-59.168-287.49-85.078-426.358-85.078-247.402 0-376.562 69.038-436.562 87.286-29.96 9.114-60.812-6.046-72.634-33.76-13.008-30.38 1.172-65.742 31.552-78.78 154.2-65.906 322.932-94.686 477.616-94.686 153.48 0 318.134 28.342 473.614 94.688 30.41 13.066 44.56 48.398 31.552 78.78zM360 599.926v-150c0-16.552 13.448-30 30-30h184c16.552 0 30 13.448 30 30v150c-111.844 0-134.434 0-244 0zM997.632 728.716l-84.842 84.844c-16.992 16.992-39.61 26.368-63.632 26.368h-35.158c-82.706 0-150-67.294-150-150 0-87.648 0-154.93 0-240 0-49.628-40.372-90-90-90h-184c-49.628 0-90 40.372-90 90v146.968c-101.5-14.714-180-101.458-180-206.968v-197.938c60-22.232 102.418-39.682 180-55.634v9.572c0 49.628 40.372 90 90 90h184c49.628 0 90-40.372 90-90v-18.142c61.992 8.764 122.352 22.532 180 41.802 0 127.83 0 242.4 0 370.34h90c49.628 0 90 40.372 90 90v35.156c0 24.024-9.376 46.64-26.368 63.632zM814 659.926c-16.568 0-30 13.432-30 30 0 16.572 13.432 30 30 30s30-13.428 30-30c0-16.566-13.432-30-30-30zM814 959.926c-148.886 0-270-121.114-270-270v-30h60v30c0 115.782 94.218 210 210 210h35.156c18.216 0 35.794-3.632 52.372-9.818-9.21 39.91-44.86 69.818-87.528 69.818zM174.96 657.906c-94.13 14.862-174.96-57.016-174.96-147.98v-244c0-16.582 13.418-30 30-30 10.272 0 20.302 1.058 30 3.036v150.964c0 109.706 68.486 206.060 166.56 247.292-15.82 9.874-32.874 17.644-51.6 20.688z" />
<glyph unicode="&#xe923;" glyph-name="snail" d="M149.188 802.738c18.734 16.506 30.812 40.386 30.812 67.262 0 49.628-40.372 90-90 90s-90-40.372-90-90c0-49.628 40.372-90 90-90 1.216 0 2.344 0.312 3.544 0.358l31.78-79.412c15.812 7.24 32.278 13.19 49.87 16.054 2.71 0.45 5.412 0.11 8.13 0.454l-34.136 85.284zM1017.94 14.054c0.014-0.060 0.024-0.092 0.040-0.158-2.51 10.4-0.53 2.182-0.040 0.158zM1017.98 13.896c-0.008 0.032-0.018 0.064-0.026 0.098 0.098-0.4 0.126-0.518 0.026-0.098zM1017.94 14.054c-0.058 0.238-0.108 0.428-0.148 0.566 0.052-0.21 0.112-0.416 0.162-0.626-0.004 0.020-0.008 0.038-0.014 0.060zM1017.792 14.62c-10.458 42.756-32.29 80.616-65.474 109.796-55.76-41.876-125.236-66.416-198.318-66.416-93.002 0-177.796 47.402-226.4 120-0.6 0.6-0.6 1.202-1.202 1.802-3.604-1.202-7.2-1.802-11.396-1.802h-63.002c-49.804 0-90 40.202-90 90v240c0 24.928-6.826 48.934-18.384 70.48-74.754 139.742-281.616 75.684-281.616-77.080v-293.4c0-148.798 121.202-272 270-272h662c16.582 0 30 13.418 30 30 0 9.426-7.474 52.98-6.208 48.62zM212 478c-16.568 0-30 13.432-30 30 0 16.572 13.432 30 30 30s30-13.428 30-30c0-16.568-13.432-30-30-30zM906.11 684.456c-75.938 69.024-176.2 101.66-279.382 91.846-100.13-9.54-187.69-63.848-246.76-142.214 26.974-36.084 42.032-80.062 42.032-126.088v-240c0-15.666 11.802-30 30-30h45.6c-0.6 1.202-1.202 3-1.802 4.2-8.994 27.002-13.798 55.8-13.798 85.8v49.802c0 115.8 89.4 214.2 198.604 220.198 59.4 2.402 115.994-17.398 157.992-57.598 42.004-40.202 65.404-94.2 65.404-152.402v-30c0-65.998-54.002-120-120-120s-122 54.002-122 120v30c0 16.802 13.198 30 30 30s30-13.198 30-30v-30c0-33 28.998-60 62-60s60 27 60 60v30c0 41.4-16.802 80.402-46.802 108.6-30 28.802-71.594 43.202-112.998 41.4-78.596-4.2-142.2-76.198-142.2-160.198v-49.802c0-54.382 21.518-104.442 54.594-140.398 38.408-42.602 95.604-69.602 157.406-69.602 52.2 0 101.396 15 144.002 42.602 0 0 0 0 0.594 0 74.522 45.826 125.404 129.284 125.404 227.398v30c0 101.22-42.95 198.34-117.89 266.456zM332 960c-49.628 0-90-40.372-90-90 0-26.876 12.084-50.76 30.82-67.266l-34.3-85.686c20.12-2.592 39.588-7.962 58.148-16.11l31.788 79.42c1.2-0.046 2.328-0.358 3.544-0.358 49.628 0 90 40.372 90 90s-40.372 90-90 90z" />
<glyph unicode="&#xe924;" glyph-name="soccer-ball" d="M512 960c-281.57 0-512-235.216-512-514 0-281.22 230.78-510 512-510 275.060 0 512 225.804 512 510 0 275.374-227.18 514-512 514zM542 775.82l125.314 91.982c81.094-29.964 151.106-82.47 202.58-150.12l-50.842-145.8-144.646-44.378-132.406 100.436v147.88zM356.642 867.788l125.558-92v-147.626l-137.518-93.076-133.978 45.462-46.916 150.072c50.398 61.544 116.916 109.1 192.854 137.168zM134.942 201.17c-44.154 67.774-72.404 148.052-74.41 234.328l129.562 88.666 135.722-46.054 52.016-162.192-86.408-115.924-156.482 1.176zM627.026 11.458c-36.788-9.752-75.212-15.458-115.026-15.458-43.952 0-86.338 6.618-126.522 18.42l-45.834 149.864 85.938 115.832h167.502l84.58-119.314-50.638-149.344zM728.060 193.428l-86.716 122.728 49.826 153.736 145.5 44.638 126.12-92.396c-4.54-85.942-34.918-165.578-81.188-232.166l-153.542 3.46z" />
<glyph unicode="&#xe925;" glyph-name="stars" d="M928.818 416.446c22.35 21.786 30.24 53.758 20.596 83.442s-34.816 50.902-65.702 55.39l-195.278 28.376c-6.972 1.014-12.996 5.39-16.114 11.708l-87.332 176.952c-13.812 27.988-41.782 45.374-72.992 45.374-31.208 0-59.18-17.386-72.992-45.374l-87.332-176.952c-3.118-6.314-9.14-10.692-16.112-11.706l-195.276-28.376c-30.886-4.486-56.064-25.712-65.708-55.394s-1.754-61.656 20.598-83.442l141.304-137.738c5.044-4.918 7.346-11.998 6.154-18.942l-33.36-194.49c-5.276-30.762 7.132-61.266 32.38-79.612 14.27-10.366 30.962-15.632 47.768-15.632 12.936 0 25.94 3.122 37.952 9.438l174.666 91.826c6.234 3.278 13.678 3.28 19.912-0.002l174.662-91.824c27.628-14.522 60.472-12.148 85.722 6.196 25.25 18.346 37.656 48.85 32.38 79.614l-33.358 194.486c-1.192 6.946 1.11 14.026 6.154 18.944l141.308 137.738zM596.186 451.168c19.704 0 35.676-15.972 35.676-35.674s-15.974-35.674-35.676-35.674-35.674 15.972-35.674 35.674c0 19.702 15.972 35.674 35.674 35.674zM427.812 451.168c19.704 0 35.674-15.974 35.674-35.674 0-19.704-15.974-35.674-35.674-35.674-19.704 0-35.676 15.972-35.676 35.674-0.002 19.702 15.972 35.674 35.676 35.674zM644.924 257.21l-17.694-13.508c-32.906-25.124-73.83-38.956-115.232-38.956s-82.328 13.836-115.232 38.956l-17.694 13.508c-13.168 10.054-15.694 28.88-5.64 42.048 10.054 13.17 28.878 15.696 42.048 5.64l17.694-13.508c22.508-17.186 50.502-26.65 78.824-26.65s56.316 9.464 78.824 26.65l17.694 13.508c13.172 10.050 32 7.53 42.048-5.64 10.052-13.17 7.528-31.996-5.64-42.048zM1021.6 809.63c-5.718 17.608-20.654 30.202-38.974 32.862l-53.792 7.818-24.056 48.744c0 0 0 0-0.002 0.002-8.194 16.6-24.786 26.912-43.296 26.912-18.512-0.002-35.1-10.314-43.29-26.914l-24.058-48.744-53.794-7.818c-18.32-2.662-33.252-15.256-38.972-32.862-5.718-17.608-1.038-36.568 12.218-49.488l38.924-37.942-9.19-53.578c-3.128-18.248 4.232-36.34 19.212-47.222 8.462-6.146 18.362-9.27 28.33-9.27 7.672 0 15.386 1.852 22.514 5.598l48.114 25.296 48.112-25.294c16.388-8.618 35.87-7.208 50.848 3.674s22.338 28.978 19.208 47.222l-9.19 53.574 38.924 37.94c13.248 12.922 17.93 31.884 12.21 49.49zM322.638 809.63c-5.72 17.608-20.654 30.202-38.974 32.862l-53.792 7.818-24.060 48.742c-8.192 16.602-24.782 26.914-43.29 26.916-0.002 0-0.002 0-0.004 0-18.512 0-35.1-10.312-43.294-26.914l-24.058-48.744-53.792-7.818c-18.322-2.662-33.256-15.256-38.974-32.862-5.72-17.608-1.040-36.568 12.218-49.488l38.924-37.942-9.19-53.574c-3.13-18.246 4.228-36.34 19.208-47.222 8.462-6.15 18.366-9.274 28.334-9.274 7.672 0 15.388 1.852 22.514 5.598l48.112 25.296 48.112-25.294c16.388-8.616 35.87-7.208 50.844 3.67 14.98 10.882 22.342 28.976 19.212 47.226l-9.19 53.574 38.922 37.94c13.256 12.922 17.938 31.882 12.218 49.49z" />
<glyph unicode="&#xe926;" glyph-name="sun" d="M966.204 529.896l-105.916 37.666c12.912-37.506 19.938-77.726 19.938-119.56s-7.028-82.054-19.938-119.56l105.916 37.664c35.11 12.484 57.796 44.63 57.796 81.894s-22.686 69.41-57.796 81.896zM181.216 286.338l-48.296-101.598c-15.998-33.656-9.31-72.428 17.040-98.78 26.35-26.348 65.122-33.038 98.78-17.040l101.598 48.294c-73.388 36.014-133.11 95.736-169.122 169.124zM163.712 567.56l-105.916-37.664c-35.11-12.486-57.796-44.632-57.796-81.896s22.686-69.41 57.796-81.896l105.916-37.666c-12.91 37.508-19.938 77.728-19.938 119.562s7.028 82.054 19.938 119.56zM891.080 184.742l-48.294 101.598c-36.014-73.39-95.736-133.112-169.124-169.124l101.598-48.294c33.658-16 72.43-9.31 98.78 17.040s33.038 65.124 17.040 98.78zM512 79.774c-41.834 0-82.054 7.028-119.56 19.938l37.664-105.916c12.486-35.11 44.632-57.796 81.896-57.796s69.41 22.686 81.896 57.796l37.666 105.916c-37.508-12.91-77.728-19.938-119.562-19.938zM248.74 827.080c-33.658 15.998-72.43 9.31-98.78-17.040s-33.038-65.124-17.040-98.78l48.294-101.598c36.014 73.388 95.736 133.11 169.124 169.122l-101.598 48.296zM593.896 902.204c-12.486 35.11-44.632 57.796-81.896 57.796s-69.41-22.686-81.896-57.796l-37.664-105.916c37.506 12.91 77.726 19.938 119.56 19.938s82.054-7.028 119.56-19.938l-37.664 105.916zM874.038 810.040c-26.35 26.348-65.122 33.040-98.78 17.040l-101.598-48.294c73.39-36.014 133.112-95.736 169.124-169.124l48.294 101.598c15.998 33.656 9.31 72.428-17.040 98.78zM512 756.226c-169.956 0-308.226-138.268-308.226-308.226s138.268-308.226 308.226-308.226 308.226 138.268 308.226 308.226-138.27 308.226-308.226 308.226zM599.126 565.37c0 16.568 13.432 30 30 30s30-13.432 30-30v-45.926c0-16.568-13.432-30-30-30s-30 13.432-30 30v45.926zM364.874 565.37c0 16.568 13.432 30 30 30s30-13.432 30-30v-45.926c0-16.568-13.432-30-30-30s-30 13.432-30 30v45.926zM671.086 310.046l-21.728-16.588c-39.226-29.948-88.008-46.442-137.36-46.442s-98.132 16.494-137.36 46.442l-21.728 16.588c-13.168 10.054-15.694 28.88-5.64 42.048 10.052 13.168 28.88 15.694 42.050 5.64l21.728-16.588c28.828-22.010 64.68-34.13 100.95-34.13s72.122 12.122 100.95 34.13l21.728 16.588c13.17 10.054 31.998 7.528 42.050-5.64 10.056-13.168 7.53-31.994-5.64-42.048z" />
<glyph unicode="&#xe927;" glyph-name="twitter-logo-silhouette" d="M1024 765.477c-37.689-16.7-78.129-28.026-120.618-33.083 43.384 25.98 76.594 67.187 92.334 116.139-40.696-24.059-85.616-41.529-133.48-50.999-38.328 40.888-92.846 66.356-153.316 66.356-116.010 0-210.072-94.062-210.072-210.009 0-16.444 1.856-32.505 5.44-47.864-174.559 8.768-329.345 92.399-432.941 219.481-18.109-30.971-28.411-67.059-28.411-105.581 0-72.883 37.113-137.191 93.423-174.815-34.426 1.151-66.804 10.621-95.15 26.363v-2.624c0-101.741 72.435-186.652 168.48-205.978-17.597-4.735-36.153-7.359-55.35-7.359-13.565 0-26.683 1.344-39.544 3.904 26.746-83.505 104.301-144.228 196.188-145.893-71.859-56.31-162.466-89.776-260.879-89.776-16.956 0-33.658 1.024-50.102 2.88 92.975-59.702 203.354-94.511 321.988-94.511 386.423 0 597.648 320.069 597.648 597.648l-0.704 27.195c41.271 29.437 76.976 66.421 105.067 108.526z" />
<glyph unicode="&#xe928;" glyph-name="ukelele" d="M1010.842 877.182l-69.656 69.656c-8.924 8.924-21.188 13.684-33.796 13.116s-24.394-6.408-32.48-16.098l-86.872-104.092c-7.192-8.616-6.622-21.296 1.316-29.23l1.822-1.822-307.86-307.86c-69.868 43.554-150.984 44.906-198.148-2.26-12.848-12.848-22.096-28.218-27.868-45.194-11.072-32.552-40.81-55.148-75.14-57.094-50.802-2.884-99.050-22.512-135.96-59.422-86.952-86.95-41.544-200.34 56.4-298.282 97.944-97.944 211.33-143.352 298.282-56.398 36.91 36.91 56.538 85.156 59.422 135.958 1.948 34.326 24.546 64.068 57.094 75.14 16.974 5.774 32.344 15.020 45.194 27.868 47.164 47.164 45.812 128.28 2.26 198.148l307.86 307.86 1.822-1.822c7.936-7.936 20.614-8.506 29.23-1.316l104.092 86.872c9.688 8.086 15.532 19.872 16.098 32.48 0.57 12.606-4.19 24.87-13.112 33.792zM298.754 93.906c-6.624-6.624-15.304-9.936-23.984-9.936s-17.362 3.31-23.984 9.936l-92.876 92.876c-13.246 13.244-13.246 34.724 0 47.97 13.244 13.246 34.724 13.246 47.97 0l92.876-92.876c13.248-13.246 13.248-34.724-0.002-47.97zM440.244 257.72c-32.728-32.728-85.794-32.728-118.522 0s-32.728 85.794 0 118.522c32.728 32.728 85.794 32.728 118.522 0 32.728-32.73 32.728-85.794 0-118.522z" />
<glyph unicode="&#xe929;" glyph-name="arrow-right-circle" d="M512 960c-282.752 0-512-229.248-512-512 0-282.816 229.248-512 512-512 282.816 0 512 229.184 512 512 0 282.752-229.184 512-512 512zM672.416 423.776l-221.376-221.376c-13.312-13.248-34.944-13.248-48.256 0-13.312 13.312-13.312 35.008 0 48.256l197.344 197.344-197.344 197.344c-13.312 13.312-13.312 34.944 0 48.256s34.944 13.312 48.256 0l221.376-221.376c6.816-6.688 10.048-15.488 9.952-24.224 0-8.8-3.264-17.536-9.952-24.224z" />
<glyph unicode="&#xe92a;" glyph-name="long-arrow-pointing-to-the-right" d="M1018.080 463.36l-227.552 207.424c-6.336 5.12-13.248 6.112-20.736 2.976s-11.264-8.896-11.264-17.184v-132.736h-739.552c-5.536 0-10.080-1.76-13.632-5.344s-5.344-8.096-5.344-13.632v-113.76c0-5.536 1.76-10.080 5.344-13.632s8.096-5.312 13.632-5.312h739.552v-132.736c0-7.904 3.776-13.632 11.264-17.184 7.52-3.168 14.432-1.984 20.736 3.552l227.552 209.792c3.936 3.936 5.92 8.672 5.92 14.208 0 5.12-1.984 9.664-5.92 13.6z" />
<glyph unicode="&#xe92b;" glyph-name="next" d="M1016.512 466.080l-289.632 289.632c-10.016 10.016-26.208 10.016-36.192 0s-10.016-26.208 0-36.192l245.92-245.92h-911.008c-14.144 0-25.6-11.456-25.6-25.6s11.456-25.6 25.6-25.6h910.976l-245.92-245.92c-10.016-10.016-10.016-26.208 0-36.192s26.208-10.016 36.224 0l289.632 289.632c10.016 10.016 10.016 26.208 0 36.192z" />
<glyph unicode="&#xe92c;" glyph-name="right-arrow" d="M320.704-2.88c-6.336-6.336-14.304-9.536-23.008-9.536s-16.672 3.168-23.008 9.536c-12.704 12.704-12.704 33.344 0 46.048l404.832 404.832-404.832 404.832c-12.704 12.704-12.704 33.344 0 46.048s33.344 12.704 46.048 0l427.872-427.872c12.704-12.704 12.704-33.344 0-46.048l-427.872-427.872z" />
<glyph unicode="&#xe92d;" glyph-name="right-arrow-1" d="M266.848-64c-5.536 0-11.104 2.112-15.328 6.336-8.48 8.48-8.48 22.176 0 30.656l475.008 475.008-475.008 475.008c-8.48 8.48-8.48 22.176 0 30.656s22.176 8.48 30.656 0l490.304-490.304c8.48-8.48 8.48-22.176 0-30.656l-490.304-490.336c-4.256-4.224-9.76-6.336-15.328-6.336z" />
<glyph unicode="&#xe92e;" glyph-name="right-arrow-3" d="M1024 448l-163.872 163.872v-131.616h-860.128v-64.512h860.128v-131.616z" />
<glyph unicode="&#xe92f;" glyph-name="right-arrow-4" d="M776.832 478.176l-469.344 469.344c-16.672 16.672-43.68 16.672-60.352 0s-16.672-43.68 0-60.352l439.168-439.168-439.168-439.168c-16.672-16.672-16.672-43.68 0-60.352s43.68-16.672 60.352 0l469.344 469.344c16.672 16.672 16.672 43.68 0 60.352z" />
<glyph unicode="&#xe930;" glyph-name="right-arrow-5" d="M872.16 599.84l-45.6-45.6 73.952-73.952h-900.512v-64.512h900.512l-73.952-73.952 45.6-45.6 151.84 151.84z" />
<glyph unicode="&#xe931;" glyph-name="right-arrow-6" d="M723.776 475.936l-349.088 465.44c-15.424 20.576-44.608 24.736-65.152 9.312s-24.736-44.608-9.312-65.152l328.128-437.504-328.128-437.536c-15.424-20.576-11.264-49.728 9.312-65.152 8.384-6.272 18.176-9.312 27.904-9.312 14.144 0 28.128 6.432 37.28 18.624l349.088 465.472c12.416 16.544 12.416 39.296 0 55.84z" />
<glyph unicode="&#xe932;" glyph-name="right-arrow-8" d="M723.776 475.936l-349.088 465.44c-15.424 20.576-44.608 24.736-65.152 9.312s-24.736-44.608-9.312-65.152l328.128-437.504-328.128-437.536c-15.424-20.576-11.264-49.728 9.312-65.152 8.384-6.272 18.176-9.312 27.904-9.312 14.144 0 28.128 6.432 37.28 18.624l349.088 465.472c12.416 16.544 12.416 39.296 0 55.84z" />
<glyph unicode="&#xe933;" glyph-name="right-arrow-9" d="M1010.368 480.928l-116.352 116.352c-13.312 13.312-33.344 17.28-50.72 10.080s-28.736-24.192-28.736-43.008v-69.824h-768c-25.696 0-46.56-20.832-46.56-46.56s20.832-46.56 46.56-46.56h768v-69.824c0-18.816 11.328-35.808 28.736-43.008 5.76-2.368 11.808-3.552 17.792-3.552 12.096 0 24.032 4.736 32.928 13.632l116.352 116.352c18.176 18.176 18.176 47.648 0 65.824z" />
<glyph unicode="&#xe934;" glyph-name="right-arrow-angle" d="M750.944 482.112v0l-477.888 477.888-34.112-34.144 477.856-477.888-477.856-477.888 34.112-34.112 512 512z" />
<glyph unicode="&#xe935;" glyph-name="right-chevron" d="M350.4 960l-60.8-45.6 349.792-466.4-349.792-466.4 60.8-45.6 384 512z" />
<glyph unicode="&#xe936;" glyph-name="right-chevron-1" d="M350.4 960l-60.8-45.6 349.792-466.4-349.792-466.4 60.8-45.6 384 512z" />
<glyph unicode="&#xe937;" glyph-name="agenda" d="M918.24-64c48.8 0 88.384 39.584 88.384 88.384v847.264c0 48.8-39.584 88.384-88.384 88.384h-133.6v-528.32c0-13.6-16.128-20.736-26.176-11.712l-89.216 80.416c-5.856 5.44-15.072 5.44-20.928 0l-89.216-80.416c-10.048-8.992-26.176-1.888-26.176 11.712v528.32h-321.44c-48.8 0-88.384-39.584-88.384-88.384v-110.976h-42.304c-34.976 0-63.456-28.48-63.456-63.456s28.48-63.456 63.456-63.456h42.304v-122.304h-42.304c-34.976 0-63.456-28.48-63.456-63.456s28.48-63.456 63.456-63.456h42.304v-122.304h-42.304c-34.976 0-63.456-28.48-63.456-63.456s28.48-63.456 63.456-63.456h42.304v-110.976c0-48.8 39.584-88.384 88.384-88.384h706.752z" />
<glyph unicode="&#xe938;" glyph-name="agenda-one" d="M832 12.8c0 42.4 34.4 76.8 76.8 76.8h-716.8c-42.4 0-76.8-34.4-76.8-76.8s34.4-76.8 76.8-76.8h716.8c-42.4 0-76.8 34.4-76.8 76.8zM793.6 960v-460.8l-140.8 105.6-140.8-105.6v460.8h-320c-42.4 0-76.8-34.4-76.8-76.8v-737.472c22.624 13.12 48.832 20.672 76.8 20.672h716.8v793.6h-115.2zM588.8 960v-307.2l64 48 64-48v307.2z" />
<glyph unicode="&#xe939;" glyph-name="american-football" d="M0 216.864v-173.088c0-59.52 48.256-107.776 107.776-107.776h173.088l-280.864 280.864zM916.224 960h-173.088l280.864-280.864v173.088c0 59.52-48.256 107.776-107.776 107.776zM634.688 954.112c-327.552-41.728-587.072-301.248-628.8-628.8l383.424-383.424c327.552 41.728 587.072 301.28 628.8 628.8l-383.424 383.424zM731.136 514.688l-57.152-57.152-47.648 47.648-57.152-57.184 47.648-47.648-57.152-57.152-47.648 47.648-57.152-57.152 47.648-47.648-57.152-57.152-47.648 47.648-66.688-66.688-57.152 57.152 66.688 66.688-47.648 47.648 57.152 57.152 47.648-47.648 57.152 57.152-47.648 47.648 57.152 57.152 47.648-47.648 57.152 57.184-47.648 47.648 57.152 57.152 47.648-47.648 66.688 66.688 57.152-57.152-66.688-66.688 47.648-47.648z" />
<glyph unicode="&#xe93a;" glyph-name="apple" d="M519.776 603.168c45.088 17.44 295.552 241.92 132.864 340.992-148.672 90.56-190.528-233.184-166.816-320.928 1.152-9.76 18.848-21.792 33.92-20.064zM839.232 594.688c-160.448 114.016-293.472-38.016-325.12-38.016-0.608 0-3.616 0-4.224 0-31.68 0-164.672 152-325.12 38.016s-40.128-658.688 266.016-658.688c24.48 0 44.576 0 64.928 0 17.92 0 36.032 0 57.536 0 306.112 0 426.464 544.704 266.016 658.688zM702.016 319.168c-8.448-51.872-75.136-115.104-128.672-165.92-14.464-13.664-29.088-27.552-38.112-37.312-0.928-1.088-11.040-12.576-22.432-12.576-11.328 0-21.664 11.328-22.816 12.608-8.48 9.12-21.504 21.408-36.608 35.616l-1.248 1.152c-54.176 50.944-121.6 114.368-130.144 166.432-5.856 35.904-0.512 64.96 15.808 86.4 16.48 21.632 42.4 34.080 79.232 38.016 3.040 0.32 6.176 0.48 9.408 0.48 32.704 0 65.248-15.36 85.568-39.712 20.288 24.384 52.864 39.712 85.568 39.712 3.232 0 6.4-0.192 9.376-0.48 36.896-3.968 62.816-16.384 79.296-38.048 16.352-21.472 21.632-50.528 15.776-86.368z" />
<glyph unicode="&#xe93b;" glyph-name="arrow" d="M512 952c-264 0-480-201.6-502.4-459.2h449.6v148.8l264-201.6-264-216v147.2h-446.4c36.8-243.2 246.4-427.2 499.2-427.2 278.4 0 504 225.6 504 504s-225.6 504-504 504z" />
<glyph unicode="&#xe93c;" glyph-name="arrow-one" d="M0.384 5.44c0.064-12.704 10.4-23.040 23.136-23.040h853.248c16 0 28.928 12.96 28.928 28.96v31.072h-905.408c0.064-12.288 0.096-25.824 0.128-36.96zM882.912 556.64l-72.416-20.096v-385.12c-37.216 15.232-88.448 30.304-151.264 30.304-52.448 0-105.248-10.432-157.024-31.136v505.568c24.832 15.456 79.232 44.736 145.696 48.096l16.672 72.608c-1.44 0-2.816 0.032-4.256 0.032-98.176 0-175.872-45.472-204.512-64.896-5.504-3.744-5.632-3.744-0.096 0-28.64 19.424-106.208 64.896-204.448 64.896-74.912 0-145.536-26.144-208.992-77.696-8.32-6.88-13.696-17.184-13.696-28.096v-112.608l-28.64-480.96h905.92l-23.008 472.448v6.656zM409.248 150.688c-51.712 20.672-104.544 31.072-156.992 31.072-62.88 0-113.984-15.136-151.232-30.368v501.984c47.552 33.984 97.184 51.168 150.016 51.168 72.064 0 133.376-32.032 158.208-48.416v-505.472zM1016 801.6c11.008 11.584 10.624 29.92-0.992 40.928l-66.272 63.296c-5.312 5.12-12.576 7.904-19.936 7.744s-14.432-3.296-19.488-8.64l-118.944-124.512-29.376 28.064c-5.568 5.312-13.568 7.232-20.928 5.024-7.328-2.208-12.992-8.224-14.688-15.744l-43.456-189.984c-2.592-11.36 0.928-23.232 9.408-31.264s20.512-11.072 31.616-7.936l179.712 49.952c8.992 2.528 16.064 9.728 18.304 18.848 2.304 9.12-0.512 18.784-7.328 25.312l-15.904 15.136 118.208 123.808z" />
<glyph unicode="&#xe93d;" glyph-name="backpack" d="M385.44 718.368v-287.648h92.032v57.536h69.024v-57.536h92.032v287.648zM707.584 714.016v-352.32h-161.088v-57.536h-69.024v57.536h-161.088v352.32c-59.552-15.328-103.552-69.376-103.552-133.728v-644.32h103.552v161.088c0 44.416 36.128 80.544 80.544 80.544h230.112c44.416 0 80.544-36.128 80.544-80.544v-161.088h103.552v644.32c0 64.352-44 118.4-103.552 133.728zM627.072 108.576h-230.112c-6.336 0-11.52-5.152-11.52-11.52v-161.088h253.12v161.088c0 6.336-5.152 11.52-11.52 11.52zM28.768 235.136v-299.136h115.040v453.504c-66.528-19.808-115.040-81.408-115.040-154.368zM880.192 389.504v-453.504h115.072v299.136c0 72.96-48.512 134.56-115.072 154.368zM512 960c-100.064 0-182.752-75.552-194.208-172.576h69.76c10.848 58.816 62.496 103.552 124.416 103.552s113.568-44.704 124.416-103.552h69.76c-11.424 97.056-94.144 172.576-194.208 172.576z" />
<glyph unicode="&#xe93e;" glyph-name="badge" d="M944.064 72.16l-91.712 251.968c-70.912-89.664-176.16-151.008-295.904-163.264l73.856-202.912c4.608-12.672 16.416-21.344 29.92-21.952 0.512-0.032 0.992-0.032 1.472-0.032 12.928 0 24.768 7.488 30.272 19.296l65.728 140.928 140.928-65.728c12.16-5.728 26.688-3.488 36.672 5.632s13.44 23.36 8.8 36.032zM171.648 324.128l-91.68-251.968c-4.64-12.704-1.152-26.912 8.8-36.032 10.016-9.12 24.48-11.36 36.672-5.632l140.928 65.728 65.728-140.928c5.504-11.808 17.312-19.296 30.272-19.296 0.48 0 0.96 0 1.472 0.032 13.504 0.576 25.312 9.248 29.92 21.952l73.856 202.912c-119.744 12.224-224.992 73.568-295.904 163.232zM512 960c-202.528 0-367.296-164.768-367.296-367.296s164.768-367.296 367.296-367.296 367.296 164.768 367.296 367.296-164.768 367.296-367.296 367.296zM578.784 425.728h-133.568c-18.432 0-33.376 14.944-33.376 33.376s14.944 33.376 33.376 33.376h33.376v200.352h-33.376c-18.432 0-33.376 14.944-33.376 33.376s14.944 33.376 33.376 33.376h66.784c18.432 0 33.376-14.944 33.376-33.376v-233.728h33.408c18.432 0 33.408-14.944 33.408-33.376s-14.944-33.376-33.408-33.376z" />
<glyph unicode="&#xe93f;" glyph-name="ball" d="M512 959.968c-282.368 0-512-229.664-512-512.032 0-282.304 229.664-511.904 512-511.904s512.032 229.664 512.032 511.904c-0.096 282.4-229.696 512.032-512.032 512.032zM932.064 435.104l-27.52 35.328 12.8 88.416c9.664-35.392 14.848-72.416 14.848-110.88 0.064-4.288 0-8.544-0.128-12.832zM883.456 644.416l-24.064-166.24-74.368-59.808-227.712 66.4-34.048 159.36 138.176 130.656 188.32-77.088c12.448-16.864 23.776-34.624 33.696-53.28zM584.032 85.056l-155.52 39.104-15.712 222.272 124.032 96.384 212.672-61.984 19.232-157.152-184.672-138.624zM604.96 857.792l22.272-52.032-146.336-138.432h-162.56l-85.28 94.656c74.24 66.048 171.936 106.208 278.944 106.208 32 0 63.072-3.616 92.96-10.432zM200.384 729.632l86.496-96-58.24-142.336-136.736-55.040c-0.128 3.904-0.16 7.84-0.16 11.68 0 108.288 41.184 207.168 108.64 281.696zM95.968 388.416l142.112 57.184 128.96-102.176 14.88-210.848-90.4-42.24c-103.776 64.256-177.632 172.288-195.552 298.080zM609.92 39.264v7.84l203.168 152.384h37.632c-58.016-78.784-142.816-136.704-240.768-160.224z" />
<glyph unicode="&#xe940;" glyph-name="basketball" d="M109.824 766.656c-62.976-79.36-102.912-177.792-109.824-285.184h222.912c-6.944 104.672-46.336 204.096-113.088 285.184zM155.2 816.704c80.448-94.4 127.552-211.712 134.752-335.232h188.576v478.528c-125.376-8.064-238.496-61.152-323.328-143.296zM0 414.528c6.912-107.424 46.88-205.856 109.824-285.184 66.752 81.088 106.144 180.544 113.088 285.184h-222.912zM545.472 960v-478.528h188.576c7.232 123.552 54.304 240.864 134.752 335.232-84.864 82.112-197.952 135.2-323.328 143.296zM289.952 414.528c-7.232-123.52-54.304-240.864-134.752-335.232 84.864-82.144 197.952-135.2 323.328-143.296v478.528h-188.576zM734.048 414.528h-188.576v-478.528c125.376 8.064 238.496 61.152 323.328 143.296-80.448 94.4-127.552 211.712-134.752 335.232zM914.176 766.656c-66.752-81.088-106.144-180.544-113.088-285.184h222.912c-6.912 107.424-46.88 205.856-109.824 285.184zM801.088 414.528c6.944-104.672 46.336-204.096 113.088-285.184 62.976 79.36 102.912 177.76 109.824 285.184h-222.912z" />
<glyph unicode="&#xe941;" glyph-name="bell" d="M813.952 270.592v229.92c0 153.152-114.624 280.032-262.56 299.392v160.096h-78.784v-160.096c-147.968-19.36-262.56-146.24-262.56-299.392v-229.92l-67.776-203.328h225.92c6.656-73.504 68.576-131.296 143.776-131.296s137.12 57.792 143.776 131.296h225.92l-67.776 203.328zM393.856 500.512h-78.784c0 108.576 88.352 196.928 196.928 196.928v-78.784c-65.152 0-118.144-52.992-118.144-118.144zM512 14.784c-31.712 0-58.208 22.592-64.32 52.512h128.64c-6.112-29.92-32.608-52.512-64.32-52.512zM932.096 490.56h78.784v-78.784h-78.784v78.784zM878.272 584.064l55.712 55.712 55.712-55.712-55.712-55.712-55.712 55.712zM878.272 318.272l55.712 55.712 55.712-55.712-55.712-55.712-55.712 55.712zM13.12 490.56h78.784v-78.784h-78.784v78.784zM34.336 584.064l55.712 55.712 55.712-55.712-55.712-55.712-55.712 55.712zM34.304 318.336l55.712 55.712 55.712-55.712-55.712-55.712-55.712 55.712z" />
<glyph unicode="&#xe942;" glyph-name="bell-black-shape" d="M1012.128 147.616c-22.848 23.904-44.32 41.44-63.264 56.928-42.464 34.656-68.096 55.616-68.096 114.592v202.208c-0.8 165.92-113.312 313.952-269.344 356.608-6.88 33.92-33.344 82.048-99.424 82.048-66.72 0-92.864-46.624-99.424-79.776-155.168-42.496-267.168-191.424-268.064-358.944v-195.648c0-60.832-27.328-84.16-72.608-122.752-18.080-15.36-38.528-32.832-59.968-55.232-4.832-5.024-6.176-12.48-3.456-18.88s9.024-10.56 16-10.56h296.128c-2.272-3.776-3.136-8.288-2.208-12.672 21.76-98.208 103.168-169.504 193.568-169.504 90.464 0 171.872 71.296 193.6 169.504 0.96 4.384 0.096 8.896-2.208 12.672h296.128c6.976 0 13.28 4.16 16 10.56s1.408 13.824-3.392 18.88zM443.552 794.496c-134.048-16-209.248-194.208-210.016-196-2.784-6.688-9.248-10.752-16.064-10.752-2.208 0-4.48 0.416-6.624 1.312-8.864 3.68-13.088 13.856-9.408 22.72 3.36 8.128 83.968 198.848 238.016 217.248 9.632 1.152 18.208-5.664 19.36-15.232s-5.664-18.208-15.232-19.328z" />
<glyph unicode="&#xe943;" glyph-name="bell-one" d="M871.52 808.128c-117.984 117.984-309.28 117.984-427.264 0l-197.184-197.184 427.264-427.264 197.184 197.184c117.984 117.984 117.984 309.28 0 427.264zM592.16 167.232l-361.536 361.536c-63.52 63.52-166.528 63.52-230.048 0l591.584-591.584c63.52 63.52 63.52 166.528 0 230.048zM314.464 116.288c-29.888-45.12-24.96-106.496 14.784-146.24s101.12-44.672 146.24-14.784l-161.024 161.024zM1003.008 939.584c-27.232 27.232-71.36 27.232-98.592 0-13.76-13.76-20.544-31.808-20.416-49.856 12.8-9.824 25.12-20.576 36.832-32.32s22.496-24.032 32.32-36.832c18.016-0.16 36.096 6.656 49.856 20.416 27.232 27.232 27.232 71.36 0 98.592z" />
<glyph unicode="&#xe944;" glyph-name="big-church-bell" d="M367.808 25.856h288.384c0-40.48-64.544-89.856-144.192-89.856s-144.192 49.376-144.192 89.856zM883.904 147.616l-0.032 0.128c-48.736 45.056-79.296 109.536-79.296 181.152v185.984c0 123.584-76.608 229.248-184.96 272.128v65.376c0 59.328-48.288 107.616-107.616 107.616s-107.616-48.288-107.616-107.616v-65.376c-108.32-42.88-184.96-148.544-184.96-272.128v-185.984c0-71.616-30.528-136.096-79.296-181.152l-0.032-0.128c-10.24-8.224-16.8-20.864-16.8-35.008 0-7.488 1.856-14.528 5.088-20.736 7.488-14.368 22.496-24.192 39.84-24.192h687.552c17.344 0 32.352 9.824 39.84 24.192 3.232 6.208 5.088 13.248 5.088 20.736 0 14.176-6.56 26.784-16.8 35.008zM512 811.616c-26.848 0-48.576 21.76-48.576 48.576s21.76 48.576 48.576 48.576 48.576-21.76 48.576-48.576c0-26.848-21.76-48.576-48.576-48.576z" />
<glyph unicode="&#xe945;" glyph-name="book2" d="M395.328 756.128h233.28v-65.888h-233.28v65.888zM395.328 666.56h233.28v-65.888h-233.28v65.888zM269.728 50.272v-114.272l87.872 31.136 87.872-31.136v114.272zM193.216 960v-843.84h637.568v843.84h-637.568zM683.808 544.32h-343.616v268.16h343.616v-268.16z" />
<glyph unicode="&#xe946;" glyph-name="book1" d="M187.168 90.528h-14.912c-19.328 0-35.136 14.912-35.136 34.272v37.216c0 19.36 15.808 34.72 35.136 34.72h416.384l-19.52 90.848c-4.032 18.656 2.016 38.176 16.032 51.2s34.336 17.76 52.672 12.416l130.624-37.92v544.768c0 56.736-47.040 101.952-103.84 101.952h-496.96c-56.768 0-102.816-45.184-102.816-101.952v-737.792c0-56.768 46.048-101.952 102.816-101.952h459.648l-15.584 72.256-424.576-0.032zM245.536 751.2c0 16.672 13.472 30.208 30.176 30.208h279.744c16.672 0 30.208-13.504 30.208-30.208v-67.168c0-16.64-13.504-30.208-30.208-30.208h-279.744c-16.672 0-30.176 13.504-30.176 30.208v67.168zM841.344 165.12l28.352 26.336c5.952 5.568 8.48 13.856 6.56 21.664-1.984 7.904-7.84 14.176-15.584 16.448l-203.36 59.296c-7.392 2.112-15.424 0.256-20.992-4.992s-8.096-13.024-6.432-20.608l44.576-207.008c1.76-7.936 7.552-14.304 15.328-16.768 7.776-2.4 16.16-0.512 22.176 5.056l20.8 19.296 105.632-113.472c8.16-8.768 19.424-14.048 31.392-14.368 11.936-0.416 23.584 3.904 32.32 12.064l42.752 39.808c18.208 16.896 19.264 45.408 2.304 63.744l-105.856 113.504z" />
<glyph unicode="&#xe947;" glyph-name="book22" d="M261.408 960c-57.248 0-103.68-46.4-103.68-103.68v-744.128c0-57.248 46.4-103.648 103.68-103.648h19.68v-54.848c0-6.272 3.392-12.224 8.896-15.36s12.256-3.168 17.728 0.096l83.456 48.768 83.456-48.768c5.472-3.264 12.256-3.264 17.76-0.064 5.504 3.232 8.896 9.024 8.896 15.36v54.848h261.28c57.248 0 103.648 46.432 103.648 103.68v744.064c-0.064 57.248-46.4 103.68-103.68 103.68h-501.184zM340.192 748.32c0 16.832 13.632 30.464 30.464 30.464h281.504c16.8 0 30.432-13.632 30.432-30.464v-67.488c0-16.832-13.632-30.464-30.432-30.464h-281.504c-16.832 0-30.464 13.632-30.464 30.464v67.488zM792.032 116.864c0-19.488-15.776-35.36-35.392-35.36h-255.328v26.24c0 19.392-15.808 35.392-35.328 35.392h-149.6c-19.488 0-35.328-15.776-35.328-35.392v-26.24h-15.040c-19.488 0-35.328 15.744-35.328 35.36v37.6c0 19.488 15.808 35.36 35.328 35.36h490.592c19.52 0 35.392-15.84 35.392-35.36v-37.6z" />
<glyph unicode="&#xe948;" glyph-name="book-and-computer-mouse" d="M750.752 315.968c-9.024 4.736-20.192 1.28-24.928-7.744l-35.84-68.128c-4.736-9.024-1.28-20.192 7.744-24.928s20.192-1.28 24.928 7.744l35.84 68.16c4.736 9.024 1.28 20.192-7.744 24.928zM975.040 519.296c-13.28 23.936-38.528 38.784-65.92 38.784-12.736 0-25.376-3.264-36.576-9.472-17.6-9.76-30.336-25.824-35.872-45.152-2.464-8.576-3.36-17.376-2.752-26.016-5.472 0.512-10.816 0.768-15.968 0.768-28 0-52.832-7.328-73.76-21.76-10.528-7.264-19.744-16.128-27.616-26.528-0.608 0.064-1.216 0.096-1.792 0.16v262.688c0 70.464-57.312 127.776-127.776 127.776h-445.6c-14.976 0-27.136 12.192-27.136 27.168s12.192 27.168 27.136 27.168h485.984c23.488 0 42.592 19.104 42.592 42.592s-19.104 42.592-42.592 42.592h-485.984c-61.952 0-112.32-50.4-112.32-112.352v-642.592c0-70.464 57.312-127.776 127.776-127.776h305.728c0.896-8.928 3.232-17.696 7.072-26.016 17.664-38.464 49.024-71.072 88.384-91.744 29.28-15.392 61.728-23.552 93.76-23.552 10.752 0 21.472 0.928 31.872 2.72 17.408 3.040 33.088 11.392 45.28 24.096 39.2 40.832 73.984 78.080 103.040 120.544 34.56 50.56 56.32 101.472 68.416 160.224 3.552 17.28 1.536 34.88-5.792 50.912-4.736 10.304-9.856 20.064-15.392 29.28 37.632 4.448 70.4 22.304 91.744 50.56 30.528 40.384 32.064 94.56 4.128 144.928zM212.192 243.744c0-18.816-15.264-34.080-34.080-34.080s-34.080 15.264-34.080 34.080v443.328c0 18.816 15.264 34.080 34.080 34.080s34.080-15.264 34.080-34.080v-443.328zM927.456 411.264c-17.344-22.944-50.848-32.576-85.44-24.576-18.944 3.584-32.544 2.272-41.6-3.968-8.832-6.080-15.040-17.984-19.008-36.192 25.856-16.864 46.976-42.88 62.88-77.568 1.888-4.096 2.4-8.64 1.472-13.056-10.4-50.528-29.152-94.368-59.008-138.016-26.368-38.592-59.392-73.856-96.672-112.704-3.104-3.232-7.168-5.408-11.584-6.176-28.448-4.96-59.232 0.256-86.656 14.688s-49.184 36.832-61.216 63.072c-1.888 4.064-2.4 8.64-1.472 13.056 10.88 52.736 21.216 99.936 38.048 143.52 19.040 49.312 44.544 89.632 80.256 126.816 3.104 3.232 7.168 5.408 11.584 6.176 36.224 6.304 68.576 4.064 96.448-6.656 5.824 21.728 15.296 36.96 28.832 46.304 15.648 10.784 36.352 13.568 63.264 8.416 0.192-0.032 0.384-0.096 0.576-0.128 23.424-5.504 46.24 0.128 56.704 14.016 11.264 14.912 4.736 34.048-2.72 47.52-3.808 6.816-1.312 15.424 5.504 19.232s15.456 1.312 19.232-5.504c16.096-28.96 16.288-57.504 0.576-78.304z" />
<glyph unicode="&#xe949;" glyph-name="bookmark" d="M320 192h512c35.36 0 64 28.64 64 64v640c0 35.36-28.64 64-64 64h-128v-256l-96 64-96-64v256h-256c-70.688 0-128-57.312-128-128v-704c0-105.888 86.112-192 192-192h512c35.36 0 64 28.64 64 64s-28.64 64-64 64h-512c-35.296 0-64 28.704-64 64s28.704 64 64 64z" />
<glyph unicode="&#xe94a;" glyph-name="book-one" d="M832 12.8c0 42.4 34.4 76.8 76.8 76.8h-716.8c-42.4 0-76.8-34.4-76.8-76.8s34.4-76.8 76.8-76.8h716.8c-42.4 0-76.8 34.4-76.8 76.8zM358.4 716.8h307.2v-128h-307.2v128zM192 960c-42.4 0-76.8-34.4-76.8-76.8v-737.472c22.624 13.12 48.832 20.672 76.8 20.672h716.8v793.6h-716.8zM742.4 512h-460.8v281.6h460.8v-281.6z" />
<glyph unicode="&#xe94b;" glyph-name="book-with-white-bookmark" d="M135.552 70.784c0.032-2.464 0.064-4.288 0.096-5.504 0-0.704-0.128-1.408-0.16-2.144 1.632-40.608 35.136-73.152 76.128-73.152h677.184v74.592c0 14.912 12.096 26.976 26.976 26.976s26.976-12.096 26.976-26.976v-101.568c0-14.912-12.096-26.976-26.976-26.976h-708.256c-1.408 0-2.752 0.192-4.128 0.416-68 4.224-122.080 60.768-122.080 129.856 0 1.568 0.192 3.104 0.256 4.672-0.832 80.128 0 689.664 0.096 756-0.096 0.96-0.288 1.856-0.288 2.816 0 71.84 58.432 130.24 130.24 130.24h0.224v-627.008c0-7.232 2.4-13.824 6.272-17.152s8.512-2.752 12.032 1.408l94.912 112.064 89.856-111.776c2.048-2.528 4.48-3.84 6.944-3.84 1.792 0 3.552 0.672 5.184 2.048 3.936 3.264 6.4 9.952 6.4 17.28v627.008h482.272c14.912 0 26.976-12.096 26.976-26.976v-762.752c0-14.912-12.096-26.976-26.976-26.976-0.16 0-0.288 0.064-0.448 0.064-1.984-0.48-4.064-0.8-6.176-0.8h-697.504c-40.544 0-73.696-31.808-76.064-71.744z" />
<glyph unicode="&#xe94c;" glyph-name="bus" d="M159.808 48.608c1.664-62.368 52.896-112.608 115.68-112.608s113.984 50.24 115.68 112.608h-231.328zM631.904 48.608c1.664-62.368 52.896-112.608 115.68-112.608s113.984 50.24 115.68 112.608h-231.328zM920.416 737.76c-9.024 124.064-112.832 222.24-239.136 222.24h-338.208c-126.304 0-230.112-98.176-239.136-222.24h-103.968v-263.776h103.296v-358.624h817.76v358.624h102.944v263.776h-103.584zM226.4 768.48h570.304v-325.184h-570.304v325.184zM292.672 199.36c-46.72 0-84.736 38.016-84.736 84.736s38.016 84.736 84.736 84.736 84.736-38.016 84.736-84.736c0-46.72-38.016-84.736-84.736-84.736zM611.328 250.688h-199.552v66.784h199.552v-66.784zM730.4 199.36c-46.72 0-84.736 38.016-84.736 84.736s38.016 84.736 84.736 84.736 84.736-38.016 84.736-84.736c0-46.72-38.016-84.736-84.736-84.736z" />
<glyph unicode="&#xe94d;" glyph-name="calendar2" d="M726.336 412.288c-131.52 0-238.144-106.624-238.144-238.144s106.624-238.144 238.144-238.144 238.144 106.624 238.144 238.144-106.624 238.144-238.144 238.144zM845.408 126.496h-166.688v166.688h71.456v-95.264h95.264v-71.456zM59.52 567.072v-392.928h357.216c0 102.72 50.048 193.728 127.040 250.048h-43.712v71.456h71.456v-53.344c45.536 26.336 98.4 41.44 154.784 41.44v83.36h-666.784zM285.76 281.312h-71.456v71.456h71.456v-71.456zM285.76 424.192h-71.456v71.456h71.456v-71.456zM428.64 281.312h-71.456v71.456h71.456v-71.456zM428.64 424.192h-71.456v71.456h71.456v-71.456zM178.592 960h71.456v-119.072h-71.456v119.072zM607.264 840.928v-75.776c7.392-8.384 11.904-19.36 11.904-31.392 0-26.272-21.376-47.616-47.616-47.616s-47.616 21.376-47.616 47.616c0 12.032 4.512 23.008 11.904 31.392v75.776h-285.76v-75.776c7.392-8.384 11.904-19.36 11.904-31.392 0-26.272-21.376-47.616-47.616-47.616s-47.616 21.376-47.616 47.616c0 12.032 4.512 23.008 11.904 31.392v75.776h-119.072v-202.432h666.784v202.432h-119.072zM535.808 960h71.456v-119.072h-71.456v119.072z" />
<glyph unicode="&#xe94e;" glyph-name="calendar22" d="M373.088 395.072c0 12.832-10.4 23.232-23.232 23.232h-81.12c-12.832 0-23.232-10.4-23.232-23.232v-81.088c0-12.832 10.4-23.232 23.232-23.232h81.12c12.832 0 23.232 10.4 23.232 23.232v81.088zM575.776 395.072c0 12.832-10.4 23.232-23.232 23.232h-81.12c-12.832 0-23.232-10.4-23.232-23.232v-81.088c0-12.832 10.4-23.232 23.232-23.232h81.12c12.8 0 23.232 10.4 23.232 23.232v81.088zM778.496 395.072c0 12.832-10.4 23.232-23.232 23.232h-81.12c-12.832 0-23.232-10.4-23.232-23.232v-81.088c0-12.832 10.4-23.232 23.232-23.232h81.12c12.832 0 23.232 10.4 23.232 23.232v81.088zM373.088 192.352c0 12.832-10.4 23.232-23.232 23.232h-81.12c-12.832 0-23.232-10.4-23.232-23.232v-81.088c0-12.832 10.4-23.232 23.232-23.232h81.12c12.832 0 23.232 10.4 23.232 23.232v81.088zM575.776 192.352c0 12.832-10.4 23.232-23.232 23.232h-81.12c-12.832 0-23.232-10.4-23.232-23.232v-81.088c0-12.832 10.4-23.232 23.232-23.232h81.12c12.8 0 23.232 10.4 23.232 23.232v81.088zM778.496 192.352c0 12.832-10.4 23.232-23.232 23.232h-81.12c-12.832 0-23.232-10.4-23.232-23.232v-81.088c0-12.832 10.4-23.232 23.232-23.232h81.12c12.8 0 23.232 10.4 23.232 23.232v81.088zM923.52 845.984v-123.872c0-56-45.408-101.12-101.408-101.12h-63.968c-56 0-102.016 45.12-102.016 101.12v124.32h-288.32v-124.32c0-56-46.016-101.12-101.984-101.12h-63.968c-55.968 0-101.408 45.12-101.408 101.12v123.872c-48.928-1.472-89.12-41.952-89.12-91.712v-725.92c0-50.688 41.088-92.32 91.776-92.32h817.728c50.624 0 91.776 41.728 91.776 92.32v725.92c0 49.76-40.192 90.24-89.12 91.712zM893.824 73.536c0-21.92-17.76-39.68-39.68-39.68h-686.016c-21.92 0-39.68 17.76-39.68 39.68v374.976c0 21.92 17.76 39.68 39.68 39.68h686.016c21.92 0 39.68-17.76 39.68-39.68v-374.976zM201.632 687.424h63.264c19.2 0 34.784 15.552 34.784 34.752v203.072c0 19.2-15.584 34.752-34.784 34.752h-63.264c-19.2 0-34.784-15.552-34.784-34.752v-203.072c0-19.2 15.584-34.752 34.784-34.752zM757.344 687.424h63.264c19.2 0 34.752 15.552 34.752 34.752v203.072c0 19.2-15.584 34.752-34.752 34.752h-63.264c-19.2 0-34.784-15.552-34.784-34.752v-203.072c0-19.2 15.584-34.752 34.784-34.752z" />
<glyph unicode="&#xe94f;" glyph-name="certification" d="M691.296 28.768c3.904 1.952 8.128 2.912 12.384 2.912s8.48-0.96 12.384-2.912l40.32-20.16c8.768-4.384 19.104 1.984 19.104 11.808v188.8c-22.208-8.896-46.432-13.824-71.776-13.824s-49.568 4.928-71.776 13.824v-188.8c0-9.824 10.336-16.192 19.104-11.808l40.32 20.16zM703.68 528.128c-76.48 0-138.688-62.208-138.688-138.688s62.208-138.688 138.688-138.688c76.48 0 138.688 62.208 138.688 138.688s-62.208 138.688-138.688 138.688zM989.408 888.8h-954.816c-19.104 0-34.592-15.488-34.592-34.592v-716.096c0-19.104 15.488-34.592 34.592-34.592h541.952v139.552c-40.96 35.616-66.912 88-66.912 146.4 0 107.008 87.040 194.048 194.048 194.048s194.048-87.040 194.048-194.048c0-58.4-25.952-110.816-66.912-146.4v-139.552h158.592c19.104 0 34.592 15.488 34.592 34.592v716.096c0 19.104-15.488 34.592-34.592 34.592zM332.96 289.44h-179.040c-15.296 0-27.68 12.384-27.68 27.68s12.384 27.68 27.68 27.68h179.040c15.296 0 27.68-12.384 27.68-27.68s-12.384-27.68-27.68-27.68zM392.64 468.448h-238.688c-15.296 0-27.68 12.384-27.68 27.68s12.384 27.68 27.68 27.68h238.688c15.296 0 27.68-12.384 27.68-27.68s-12.384-27.68-27.68-27.68zM571.68 647.488h-417.728c-15.296 0-27.68 12.384-27.68 27.68s12.384 27.68 27.68 27.68h417.728c15.296 0 27.68-12.384 27.68-27.68s-12.384-27.68-27.68-27.68z" />
<glyph unicode="&#xe950;" glyph-name="check" d="M955.392 704l-118.816 68.608-68.576 118.784h-137.184l-118.816 68.608-118.816-68.608h-137.184l-68.608-118.816-118.784-68.576v-137.184l-68.608-118.816 68.608-118.816v-137.184l118.816-68.608 68.608-118.816h137.184l118.784-68.576 118.816 68.608h137.184l68.608 118.816 118.816 68.608v137.184l68.608 118.816-68.608 118.816v137.152h-0.032zM465.792 238.432c-9.536-9.536-22.112-14.176-34.656-14.016-12.512-0.192-25.088 4.48-34.656 14.016l-149.728 149.728c-18.752 18.752-18.752 49.184 0 67.936l39.648 39.648c18.752 18.752 49.184 18.752 67.936 0l76.8-76.8 238.496 238.528c18.752 18.752 49.184 18.752 67.936 0l39.648-39.648c18.752-18.752 18.752-49.184 0-67.936l-311.424-311.456z" />
<glyph unicode="&#xe951;" glyph-name="check-icon" d="M406.336 570.048c-31.136 13.92-49.984 18.848-68.8 0v0c-18.848-18.848-18.848-49.984 0-68.8l129.44-111.424c12.288-12.288 23.744-19.648 44.224-18.016 19.648 1.632 31.136 7.36 42.592 23.744l313.76 445.632c15.552 22.112 9.824 51.616-11.456 67.168l-4.096 2.464c-22.112 15.552-52.416 9.824-67.168-11.456l-86.016-112.224c-57.344 45.888-131.072 73.728-210.528 73.728v0c-185.152 0-336.704-151.552-336.704-336.704 0-185.952 151.552-336.704 336.704-336.704 185.952 0 336.704 151.552 336.704 336.704v0c0 27.84-3.264 55.712-9.824 81.92l-54.88-81.92c0-149.92-122.048-271.968-271.968-271.968s-271.968 122.048-271.968 271.968c0 149.92 122.048 271.968 271.968 271.968 64.704 0 124.512-22.944 171.2-60.608l-153.184-211.36-99.936 45.888z" />
<glyph unicode="&#xe952;" glyph-name="clock" d="M512 960c-282.784 0-512-229.216-512-512s229.216-512 512-512 512 229.216 512 512-229.216 512-512 512zM722.272 525.984l-178.464-123.808c-17.056-11.84-39.296-13.216-57.664-3.584s-29.92 28.672-29.92 49.408v346.912c0 30.816 24.96 55.776 55.776 55.776s55.776-24.96 55.776-55.776c0-24.32 0-217.632 0-240.352 23.744 16.48 83.296 57.792 90.912 63.072 25.312 17.568 60.064 11.264 77.632-14.048s11.264-60.064-14.048-77.632z" />
<glyph unicode="&#xe953;" glyph-name="clock2" d="M1014.4 548.32c-38.464 201.312-200.768 363.616-402.080 402.080-360.096 68.768-671.52-242.624-602.72-602.72 38.464-201.28 200.768-363.616 402.080-402.080 360.096-68.768 671.52 242.624 602.72 602.72zM749.248 210.752c-12.512-12.512-28.864-18.752-45.248-18.752s-32.736 6.24-45.248 18.752l-192 192c-12 12-18.752 28.256-18.752 45.248v256c0 35.392 28.672 64 64 64s64-28.64 64-64v-229.504l173.248-173.248c24.992-24.992 24.992-65.504 0-90.496z" />
<glyph unicode="&#xe954;" glyph-name="clock-one" d="M512 960c-282.304 0-512-229.696-512-512s229.696-512 512-512 512 229.696 512 512-229.696 512-512 512zM474.528 883.456c12.352 1.056 24.832 1.632 37.472 1.632s25.12-0.576 37.472-1.632v-85.792h-74.912v85.792zM162.336 410.528h-85.792c-1.056 12.352-1.632 24.832-1.632 37.472s0.576 25.12 1.632 37.472h85.792v-74.912zM230.72 113.76c-19.136 16.128-36.864 33.856-52.992 52.992l60.512 60.512 52.992-52.992-60.512-60.512zM238.272 668.768l-60.512 60.512c16.128 19.136 33.856 36.864 52.992 52.992l60.512-60.512-52.992-52.992zM549.472 12.544c-12.352-1.056-24.832-1.632-37.472-1.632s-25.12 0.576-37.472 1.632v85.792h74.912v-85.792zM711.808 410.528h-237.28v287.232h74.912v-212.288h162.336v-74.912zM793.28 113.76l-60.512 60.512 52.992 52.992 60.512-60.512c-16.128-19.136-33.856-36.864-52.992-52.992zM785.728 668.768l-52.992 52.992 60.512 60.512c19.136-16.128 36.864-33.856 52.992-52.992l-60.512-60.512zM861.664 410.528v74.912h85.792c1.056-12.352 1.632-24.832 1.632-37.472s-0.576-25.12-1.632-37.472h-85.792z" />
<glyph unicode="&#xe955;" glyph-name="comment" d="M822.592 600.832c0 173.984-141.024 315.040-315.008 315.040s-315.040-141.056-315.040-315.040c0-170.24 135.040-308.832 303.872-314.72 24.224-23.584 102.688-90.080 191.488-63.008 0 0 26.432 7.232 12.352 28.832-8.928 13.664-26.688 44.544-38.88 73.888 96.192 53.888 161.28 156.864 161.28 274.976zM569.344 495.36h-180.864c-18.464 0-33.472 18.848-33.472 42.080 0 23.168 15.008 41.952 33.472 41.952h180.864c18.496 0 33.472-18.784 33.472-41.952 0-23.232-14.976-42.080-33.472-42.080zM623.84 633.984h-226.816c-23.232 0-42.016 18.816-42.016 42.016s18.784 41.984 42.016 41.984h226.816c23.168 0 42.016-18.784 42.016-41.984s-18.816-42.016-42.016-42.016z" />
<glyph unicode="&#xe956;" glyph-name="computer" d="M1022.176 69.344l-63.616 254.4c-0.992 3.968-2.528 7.68-4.512 11.072 3.648 10.080 5.632 20.96 5.632 32.288v419.36c0 52.576-42.784 95.36-95.36 95.36h-704.672c-52.608 0-95.36-42.784-95.36-95.36v-419.36c0-11.328 1.984-22.208 5.632-32.288-1.984-3.392-3.552-7.104-4.512-11.072l-64.128-256.448c-3.2-12.768-0.32-26.304 7.776-36.672s20.512-16.448 33.696-16.448h938.464c0 0 0.032 0 0.032 0 23.616 0 42.752 19.136 42.752 42.752 0 4.32-0.64 8.48-1.824 12.416zM620.288 80.992c0 0-0.032 0-0.032 0h-216.576c-2.496 0-4.864 1.12-6.464 3.040s-2.272 4.448-1.824 6.912l16.864 93.664c0.736 4.032 4.224 6.944 8.288 6.944h182.816c4.096 0 7.584-2.912 8.288-6.944l16.736-92.896c0.192-0.704 0.32-1.472 0.32-2.24 0-4.672-3.776-8.448-8.448-8.448zM876.384 367.104c0-4.864-2.912-9.056-7.072-10.976h-714.656c-4.16 1.888-7.072 6.112-7.072 10.976v419.36c0 6.656 5.408 12.064 12.096 12.064h704.672c6.656 0 12.064-5.408 12.064-12.064v-419.36zM535.2 594.432l26.688 7.296c5.28 1.44 9.056 6.112 9.312 11.584s-3.040 10.496-8.16 12.448l-123.104 46.688c-4.64 1.76-9.92 0.64-13.44-2.88s-4.64-8.768-2.88-13.44l46.688-123.104c1.952-5.12 6.976-8.416 12.448-8.16s10.144 4.032 11.584 9.312l7.296 26.688 62.304-62.272c4.928-4.928 12.96-4.928 17.888 0l15.648 15.648c4.928 4.928 4.928 12.96 0 17.888l-62.304 62.272z" />
<glyph unicode="&#xe957;" glyph-name="cup" d="M642.24 324.288c268.32 134.144 393.056 255.456 380.928 370.112-9.92 94.048-107.52 148.512-175.424 175.36 0.672 10.272 0.992 19.808 0.992 28.96 0 2.144-674.464 1.088-674.464-1.056 0-8.896 0.352-18.336 0.992-28.448-67.648-26.848-164.608-81.216-174.464-174.88-12.096-114.432 112.128-235.392 379.36-369.344 14.816-16.768 30.176-31.392 45.952-43.040l-17.024-174.816c-49.408-4.736-89.184-12.416-116.288-18.944-26.432-6.304-45.984-29.952-45.984-57.12v-34.944h528.064v35.392c0 27.072-19.36 50.656-45.664 57.216-26.88 6.624-66.112 14.144-116 18.912l-16.16 174.4c15.488 11.456 30.624 25.728 45.184 42.24zM836.992 786.208c48.96-22.208 101.408-56.736 105.984-100.384 3.136-29.76-15.36-103.68-210.752-220.768 49.824 101.76 87.008 222.304 104.8 321.152zM277.824 843.68c20.448 0 36.992-16.512 36.992-36.928s-16.544-36.992-36.992-36.992-36.992 16.576-36.992 36.992c0 20.448 16.544 36.928 36.992 36.928zM81.024 685.824c4.544 43.392 56.416 77.728 105.12 100 17.76-98.432 54.656-218.464 104.32-319.904-194.112 116.544-212.448 190.24-209.408 219.904zM412.096 429.792c-4.672-1.984-9.504-2.88-14.272-2.88-14.56 0-28.384 8.64-34.304 22.912-47.616 114.176-89.152 242.4-90.88 247.776-6.304 19.552 4.352 40.512 23.904 46.816 19.584 6.368 40.448-4.384 46.72-23.84 0.448-1.312 42.4-130.848 88.768-242.176 7.904-18.912-1.024-40.704-19.968-48.608z" />
<glyph unicode="&#xe958;" glyph-name="customer" d="M512 641.152c72.96 0 132.288 59.36 132.288 132.288s-59.36 132.288-132.288 132.288c-72.96 0-132.288-59.36-132.288-132.288s59.328-132.288 132.288-132.288zM298.656 322.528h426.688c17.632 0 31.936 14.304 31.936 31.936 0 135.232-110.016 245.28-245.28 245.28s-245.28-110.016-245.28-245.28c0-17.632 14.304-31.936 31.936-31.936zM640.864 199.936l-69.28 10.080-30.976 62.752c-11.712 23.712-45.568 23.68-57.28 0l-30.976-62.752-69.28-10.080c-26.144-3.808-36.608-36.032-17.696-54.464l50.112-48.864-11.84-68.992c-4.48-26.048 22.944-45.952 46.336-33.664l61.952 32.576 61.952-32.576c23.2-12.192 50.848 7.424 46.336 33.664l-11.84 68.992 50.112 48.864c18.912 18.464 8.448 50.656-17.696 54.464zM285.088 199.936l-69.28 10.080-30.976 62.752c-11.68 23.712-45.568 23.68-57.28 0l-30.976-62.752-69.248-10.080c-26.144-3.808-36.608-36.032-17.696-54.464l50.112-48.864-11.84-68.992c-4.48-26.048 22.944-45.952 46.336-33.664l61.952 32.576 61.952-32.576c23.2-12.192 50.848 7.424 46.336 33.664l-11.84 68.992 50.112 48.864c18.912 18.464 8.448 50.656-17.696 54.464zM996.64 199.936l-69.28 10.080-30.976 62.752c-9.6 19.456-30.784 17.792-28.64 17.792-12.16 0-23.264-6.912-28.64-17.792l-30.976-62.752-69.28-10.080c-26.144-3.808-36.608-36.032-17.696-54.464l50.112-48.864-11.84-68.992c-4.48-26.048 22.944-45.952 46.336-33.664l61.952 32.576 61.952-32.576c23.2-12.192 50.848 7.424 46.336 33.664l-11.84 68.992 50.112 48.864c18.912 18.432 8.448 50.656-17.696 54.464z" />
<glyph unicode="&#xe959;" glyph-name="dark-eye" d="M512 734.72c-335.904 0-512-247.488-512-286.72s176.096-286.72 512-286.72c335.872 0 512 247.488 512 286.72s-176.128 286.72-512 286.72zM512 227.456c-125.664 0-227.552 98.752-227.552 220.544s101.888 220.544 227.552 220.544 227.552-98.752 227.552-220.544-101.888-220.544-227.552-220.544zM625.76 448c0-60.896-50.944-110.304-113.76-110.304s-113.76 49.376-113.76 110.304 50.944 110.272 113.76 110.272c33.952 0-20.832-87.392 0-110.272 17.696-19.424 113.76 27.968 113.76 0z" />
<glyph unicode="&#xe95a;" glyph-name="diploma" d="M902.112 301.728c0-80.8-65.504-146.272-146.272-146.272s-146.272 65.504-146.272 146.272c0 80.8 65.504 146.272 146.272 146.272s146.272-65.504 146.272-146.272zM674.144 777.152h-324.288c-14.592-71.552-71.072-128.032-142.624-142.624v-80.48c71.552-14.592 128.032-71.072 142.624-142.624h216c36 62.112 101.6 105.024 177.344 109.344 21.632 16.32 46.72 27.776 73.6 33.248v80.512c-71.552 14.592-128.032 71.072-142.624 142.624zM414.464 704h195.040v-73.152h-195.040v73.152zM633.888 484.576h-243.808v73.152h243.808v-73.152zM24.384 960v-731.424h524.544c-8.128 22.88-12.544 47.52-12.544 73.152 0 12.448 1.056 24.672 3.072 36.576h-259.072v36.576c0 60.512-49.216 109.728-109.728 109.728h-36.576v219.424h36.576c60.512 0 109.728 49.216 109.728 109.728v36.576h463.232v-36.576c0-60.512 49.216-109.728 109.728-109.728h36.576v-219.424h-12.96c59.168-39.328 98.272-106.624 98.272-182.848 0-25.632-4.448-50.24-12.544-73.152h36.928v731.424h-975.232zM755.808 82.272c-35.008 0-68.128 8.256-97.536 22.912v-169.184l97.536 48.768 97.536-48.768v169.184c-29.408-14.656-62.528-22.912-97.536-22.912z" />
<glyph unicode="&#xe95b;" glyph-name="diploma-one" d="M704 304c52.928 0 96 43.072 96 96s-43.072 96-96 96c-52.928 0-96-43.072-96-96s43.072-96 96-96zM960 944h-896c-35.36 0-64-28.64-64-64v-576c0-35.2 28.8-64 64-64h480v-256c0-12.128 6.848-23.2 17.696-28.64s23.808-4.224 33.504 3.040l108.8 81.6 108.8-81.6c5.664-4.224 12.416-6.4 19.2-6.4 4.864 0 9.792 1.12 14.304 3.36 10.848 5.408 17.696 16.512 17.696 28.64v256h96c35.2 0 64 28.8 64 64v576c0 35.2-28.8 64-64 64zM602.464 277.856c-3.168 9.792-10.848 17.472-20.64 20.64l-34.432 11.104 7.584 35.392c2.144 10.048-0.64 20.544-7.552 28.16l-24.256 26.848 24.256 26.848c6.912 7.616 9.696 18.112 7.552 28.16l-7.584 35.392 34.432 11.104c9.792 3.168 17.472 10.816 20.64 20.64l11.136 34.496 35.392-7.616c10.048-2.208 20.544 0.672 28.192 7.552l26.848 24.288 26.848-24.288c7.648-6.88 18.048-9.76 28.192-7.552l35.392 7.616 11.136-34.496c3.168-9.792 10.848-17.472 20.64-20.64l34.432-11.104-7.584-35.392c-2.144-10.048 0.64-20.544 7.552-28.16l24.256-26.848-24.256-26.848c-6.912-7.616-9.696-18.112-7.552-28.16l7.584-35.392-34.432-11.104c-9.792-3.168-17.472-10.816-20.64-20.64l-11.104-34.464-35.392 7.616c-10.016 2.176-20.576-0.64-28.192-7.552l-26.848-24.288-26.848 24.288c-5.952 5.376-13.6 8.256-21.472 8.256-2.24 0-4.512-0.224-6.72-0.704l-35.392-7.616-11.104 34.464zM160 816c0.032 0 0.064 0 0.064 0h639.84c0.032 0 0.064 0 0.064 0 17.696 0 32-14.336 32-32s-14.304-32-32-32v0h-640c-17.664 0-32 14.304-32 32s14.336 32 32 32zM160 656h320c17.696 0 32-14.336 32-32s-14.304-32-32-32h-320c-17.664 0-32 14.336-32 32s14.336 32 32 32zM352 432h-192c-17.664 0-32 14.336-32 32s14.336 32 32 32h192c17.696 0 32-14.336 32-32s-14.304-32-32-32z" />
<glyph unicode="&#xe95c;" glyph-name="edit-draw-pencil" d="M614.88 745.312c-26.816 26.848-70.336 26.848-97.152 0l-374.976-375.584c0 0-34.176-34.432-111.328-283.52-0.544-1.728-1.088-3.456-1.632-5.248-1.376-4.448-2.752-8.992-4.16-13.6-1.248-4.064-2.496-8.192-3.776-12.384-1.056-3.52-2.112-7.008-3.2-10.592-2.432-8.16-4.928-16.448-7.456-25.024-5.536-18.816-19.072-61.248-3.776-76.608 14.752-14.784 57.632-1.792 76.384 3.776 8.512 2.528 16.736 4.992 24.832 7.424 3.744 1.12 7.36 2.24 11.008 3.36 3.936 1.184 7.84 2.4 11.68 3.552 4.832 1.472 9.6 2.944 14.304 4.416 1.408 0.448 2.784 0.864 4.16 1.312 236.992 73.792 279.52 108.416 283.072 111.584 0.032 0.032 0.032 0.032 0.032 0.032 0.16 0.128 0.256 0.224 0.256 0.224l10.976 11.008 0.736-0.736 364.352 364.736c26.816 26.848 26.816 70.4 0 97.28l-194.336 194.528zM394.016 122.496c-0.288-0.192-0.704-0.48-1.12-0.736-0.224-0.16-0.512-0.32-0.8-0.512s-0.608-0.384-0.928-0.576c-0.288-0.192-0.608-0.352-0.928-0.544-11.328-6.784-44.512-24.256-125.088-53.408-9.408-3.392-19.68-7.008-30.4-10.752l-114.56 114.656c3.744 10.816 7.36 21.152 10.784 30.656 29.12 80.928 46.56 114.208 53.28 125.504 0.16 0.256 0.32 0.512 0.448 0.768 0.224 0.384 0.448 0.736 0.672 1.088 0.16 0.256 0.32 0.544 0.48 0.768 0.256 0.416 0.544 0.832 0.736 1.12l8.384 8.416 207.616-207.84-8.576-8.608zM1003.52 745.312l-194.336 194.528c-26.816 26.848-70.336 26.848-97.152 0l-48.576-48.64c-26.816-26.848-26.816-70.4 0-97.248l194.336-194.528c26.816-26.848 70.336-26.848 97.152 0l48.576 48.64c26.816 26.848 26.816 70.4 0 97.28z" />
<glyph unicode="&#xe95d;" glyph-name="flask" d="M863.936 134.72l-177.824 474.336v284.16h51.968v66.784h-452.672v-66.784h51.968v-284.16l-98.112-262.368h191.808v-66.784h-216.768l-27.904-74.656h244.704v-66.784h-269.664l-1.44-3.84c-16.896-45.152-10.56-95.744 16.928-135.36s72.672-63.264 120.864-63.264h428.416c48.224 0 93.44 23.68 120.896 63.296s33.76 90.272 16.832 135.424zM368.992 502.912l35.168 94.080v296.256h215.168v-296.256l35.264-94.048h-285.6z" />
<glyph unicode="&#xe95e;" glyph-name="food5" d="M1005.92 114.592l-287.072 291.616c-11.296-6.784-20.352-11.296-33.92-15.808s-29.376-6.784-45.216-6.784c-18.080 0-36.16 4.512-52 9.056l-92.672-97.216c11.296-9.056 27.136-13.568 42.944-15.808 20.352 0 40.704 6.784 56.512 22.592l2.272 2.272 287.072-305.152c11.296-11.296 27.136-18.080 42.944-18.080s31.648 6.784 42.944 18.080l36.16 36.16c11.296 11.296 18.080 27.136 18.080 42.944s-6.784 27.136-18.080 36.16zM318.72 496.608l85.888 81.376c-4.512 15.808-6.784 31.648-6.784 47.456 0 27.136 9.056 54.24 22.592 76.864l-180.832 187.616c-27.136 27.136-74.592 27.136-101.728 0-47.456-47.456-49.728-124.32-6.784-176.32l187.616-217.024zM589.984 469.472c13.568-13.568 31.648-20.352 49.728-20.352s36.16 6.784 49.728 20.352l228.32 228.32c9.056 9.056 9.056 22.592 0 31.648l-4.512 4.512c-4.512 4.512-9.056 6.784-15.808 6.784s-11.296-2.272-15.84-6.784l-151.456-151.456c-6.784-6.784-15.808-9.056-24.864-9.056s-18.080 4.512-24.864 9.056l-4.512 4.512c-13.568 13.568-13.568 33.92 0 47.456l151.456 151.456c9.056 9.056 9.056 22.592 0 31.648l-4.512 4.512c-4.512 4.512-9.056 6.784-15.808 6.784s-11.296-2.272-15.84-6.784l-151.456-151.456c-6.784-6.784-15.808-9.056-24.864-9.056s-18.080 4.512-24.864 9.056l-4.512 4.512c-6.784 6.784-9.056 15.808-9.056 24.864s4.512 18.080 9.056 24.864l151.456 151.456c4.512 4.512 6.784 9.056 6.784 15.808s-2.272 11.296-6.784 15.808l-4.512 4.512c-4.512 4.512-9.056 6.784-15.84 6.784s0-9.056-4.512-13.568l-228.32-228.32c-13.568-13.568-20.352-31.648-20.352-49.728s6.784-38.432 20.352-49.728l6.784-6.784-472.448-447.584c-11.296-11.296-18.080-27.136-18.080-42.944s6.784-31.648 18.080-42.944l33.92-38.432c11.296-11.296 27.136-22.592 42.944-22.592v0c15.808 0 31.648 11.296 42.944 22.592l445.312 476.96 6.784-6.784z" />
<glyph unicode="&#xe95f;" glyph-name="football" d="M874.048 810.048c-96.704 96.704-225.28 149.952-362.048 149.952s-265.344-53.248-362.048-149.952c-96.704-96.704-149.952-225.28-149.952-362.048s53.248-265.344 149.952-362.048c96.704-96.704 225.28-149.952 362.048-149.952s265.344 53.248 362.048 149.952c96.704 96.704 149.952 225.28 149.952 362.048s-53.248 265.344-149.952 362.048zM73.728 369.312c-4.576 25.536-6.976 51.84-6.976 78.688 0 27.168 2.464 53.792 7.136 79.648l116.448 67.232 126.816-73.216v-146.464l-126.816-73.216-116.64 67.328zM477.408 97.696v0l-117.824-68.032c-50.080 18.304-95.968 45.376-135.808 79.296v135.168l126.816 73.216 126.816-73.216v-146.432zM477.408 652.704v0l-126.816-73.216-126.816 73.216v134.304c40.096 34.144 86.304 61.312 136.736 79.648l116.928-67.488v-146.464zM662.016 867.168c50.016-17.952 95.904-44.608 135.84-78.144v-136.32l-126.816-73.216-126.816 73.216v146.432l117.824 68.032zM797.856 106.976c-39.712-33.312-85.28-59.872-134.912-77.824l-118.752 68.544v146.432l126.816 73.216 126.816-73.216v-137.184zM831.264 301.984l-126.816 73.216v146.432l126.816 73.216 119.104-68.768c4.512-25.376 6.88-51.488 6.88-78.112 0-26.304-2.304-52.096-6.72-77.152l-119.264-68.864z" />
<glyph unicode="&#xe960;" glyph-name="gps" d="M512 678.4c-58.528 0-106.144-47.616-106.144-106.144s47.616-106.144 106.144-106.144 106.144 47.616 106.144 106.144-47.616 106.144-106.144 106.144zM512 960c-216.672 0-392.96-176.288-392.96-392.96 0-91.808 31.648-176.384 84.608-243.328l308.352-387.68 308.352 387.68c52.96 66.976 84.608 151.52 84.608 243.328 0 216.672-176.288 392.96-392.96 392.96zM512 395.392c-97.536 0-176.896 79.36-176.896 176.896s79.36 176.896 176.896 176.896 176.896-79.36 176.896-176.896-79.36-176.896-176.896-176.896z" />
<glyph unicode="&#xe961;" glyph-name="hand" d="M991.936 530.464l-49.376 28.448c-19.424 11.2-41.44 17.088-63.904 17.088h-142.656c-17.664 0-32 14.336-32 32v264.32c0 30.752-24.928 55.68-55.68 55.68h-0.192c-23.968 0-45.248-15.328-52.8-38.080l-61.44-160.704c-14.24-37.216-39.68-69.088-72.832-91.2l-141.024-94.016v-480h28.544c23.2 0 45.952-6.304 65.856-18.24l99.2-59.52c19.904-11.936 42.656-18.24 65.856-18.24h273.888c27.712 0 54.624 8.992 76.8 25.6l68.288 51.2c16.096 12.096 25.6 31.040 25.6 51.2v379.008c0 22.88-12.224 44.032-32.064 55.456zM192 608h-192v-608h192c35.328 0 64 28.64 64 64v480c0 35.36-28.672 64-64 64zM128 64c-35.328 0-64 28.64-64 64s28.672 64 64 64 64-28.64 64-64-28.672-64-64-64z" />
</font>
</defs>
</svg>
